<svg xmlns="http://www.w3.org/2000/svg" xmlns:xlink="http://www.w3.org/1999/xlink" viewBox="0 0 192.02 144"><defs><style>.cls-1{fill:none;}.cls-2{isolation:isolate;}.cls-3{fill:#fff;}.cls-4{clip-path:url(#clip-path);}.cls-5{fill:#e3c817;}.cls-6{mix-blend-mode:multiply;opacity:0.15;}.cls-7{fill:#f9f9f9;}.cls-8{fill:#fafafa;}.cls-9{fill:#f3f3f3;}.cls-10{fill:#f2f2f2;}.cls-11{fill:#f4f4f4;}.cls-12{fill:#efefef;}.cls-13{fill:#ededed;}.cls-14{fill:#ebebeb;}.cls-15{fill:#f0f0f0;}.cls-16{fill:#e7e7e7;}.cls-17{fill:#e8e8e8;}.cls-18{fill:#e5e5e5;}.cls-19{fill:#e3e3e3;}.cls-20{fill:#e2e2e2;}.cls-21{fill:#e6e6e6;}.cls-22{fill:#e4e4e4;}.cls-23{fill:#dbdbdb;}.cls-24{fill:#dedede;}.cls-25{fill:#d3d3d3;}.cls-26{fill:#d7d7d7;}.cls-27{fill:#d4d4d4;}.cls-28{fill:#d5d5d5;}.cls-29{fill:#e1e1e1;}.cls-30{fill:#dadada;}.cls-31{fill:#cfcfcf;}.cls-32{fill:#c2c2c2;}.cls-33{fill:#ccc;}.cls-34{fill:#c9c9c9;}.cls-35{fill:#d0d0d0;}.cls-36{fill:#c4c4c4;}.cls-37{fill:#c1c1c1;}.cls-38{fill:#d2d2d2;}.cls-39{fill:#d6d6d6;}.cls-40{fill:silver;}.cls-41{fill:#b4b4b4;}.cls-42{fill:#bcbcbc;}.cls-43{fill:#c6c6c6;}.cls-44{fill:#bbb;}.cls-45{fill:#b7b7b7;}.cls-46{fill:#bababa;}.cls-47{fill:#bdbdbd;}.cls-48{fill:#a8a8a8;}.cls-49{fill:#a4a4a4;}.cls-50{fill:#aeaeae;}.cls-51{fill:#a9a9a9;}.cls-52{fill:#b6b6b6;}.cls-53{fill:#adadad;}.cls-54{fill:#b0b0b0;}.cls-55{fill:#a6a6a6;}.cls-56{fill:#9e9e9e;}.cls-57{fill:#979797;}.cls-58{fill:#9b9b9b;}.cls-59{fill:#989898;}.cls-60{fill:#969696;}.cls-61{fill:#a2a2a2;}.cls-62{fill:#a1a1a1;}.cls-63{fill:#8e8e8e;}.cls-64{fill:#9c9c9c;}.cls-65{fill:#9f9f9f;}.cls-66{fill:#929292;}.cls-67{fill:#8f8f8f;}.cls-68{fill:#8d8d8d;}.cls-69{fill:#909090;}.cls-70{fill:#959595;}.cls-71{fill:#888;}.cls-72{fill:#919191;}.cls-73{fill:#8b8b8b;}.cls-74{fill:#8c8c8c;}.cls-75{fill:#878787;}.cls-76{fill:#838383;}.cls-77{fill:#848484;}.cls-78{fill:#7f7f7f;}.cls-79{fill:#828282;}.cls-80{fill:gray;}</style><clipPath id="clip-path"><rect class="cls-1" width="192.02" height="144"/></clipPath></defs><g class="cls-2"><g id="BG"><rect class="cls-3" width="192.02" height="144"/></g><g id="Object"><g class="cls-4"><rect class="cls-5" x="15.76" y="56.48" width="41.98" height="41.98" rx="7.48"/><rect class="cls-5" x="30.51" y="20.32" width="10.53" height="10.53" rx="1.87"/><rect class="cls-5" x="-22.47" y="42.33" width="47.25" height="47.25" rx="8.41"/><rect class="cls-5" x="42.86" y="-5.96" width="15.35" height="15.35" rx="2.73"/><rect class="cls-5" x="1.15" y="21.1" width="8.97" height="8.97" rx="1.6"/><rect class="cls-5" x="-6.21" y="106.59" width="41.98" height="41.98" rx="7.48"/><rect class="cls-5" x="40.06" y="96.62" width="36.29" height="36.29" rx="6.46"/><rect class="cls-3" x="37.27" y="66.24" width="17.49" height="17.49" rx="3.11"/><rect class="cls-5" x="26.09" y="86.54" width="11.18" height="11.18" rx="1.99"/><g class="cls-6"><path class="cls-7" d="M93.87,56.79a7.69,7.69,0,0,0-.75-3,5.84,5.84,0,0,0-2-2.14,8.66,8.66,0,0,0-4.44-1c-3.23-.12-6.47,0-9.71,0a4,4,0,0,0-1,.08c-.64.15-1-.19-.85-.84a2.93,2.93,0,0,0,.1-.66c0-1.31,0-2.62,0-3.93a5.76,5.76,0,0,1,0-2.58.65.65,0,0,0,0-.2c-.4-.62,0-1.36-.32-1.88a3.1,3.1,0,0,0,.06-.34c0-.1,0-.2-.07-.3A8.46,8.46,0,0,0,73,36.09a6.57,6.57,0,0,0-2.5-1.88A6.79,6.79,0,0,0,68,33.54c-1,0-2-.36-3.08-.33-7.07.17-14.14-.3-21.21.23-.51,0-1,.13-1.52.15a6,6,0,0,0-2.21.84,7.3,7.3,0,0,0-3.58,4.07,11.77,11.77,0,0,0-.68,4.33c-.07,3.13-.08,6.27,0,9.41.11,4.46-.34,8.94.3,13.4a8.9,8.9,0,0,0,1.14,3.22,7.4,7.4,0,0,0,4.59,3.42,9.31,9.31,0,0,0,1.66.21c.73.07,1.44.31,2.16.32,6.58,0,13.16,0,19.74,0a4,4,0,0,0,.49,0c.92-.11,1,0,1.34.83A6,6,0,0,0,70,77.12a5.52,5.52,0,0,0,2.4.62c.91,0,1.78.37,2.71.34.67,0,1.34,0,2,0,3.85-.08,7.7.24,11.53-.29a6.06,6.06,0,0,0,4.08-2.41A7.4,7.4,0,0,0,94,70.6C94,66,94.35,61.39,93.87,56.79Z"/><path class="cls-8" d="M41.53,132.71c-1-.05-1.9.22-2.81.23-6.9,0-13.8.07-20.71,0a10.13,10.13,0,0,1-4.14-.67,7.72,7.72,0,0,1-4.08-3.66,11.63,11.63,0,0,1-1.06-4.34c-.5-6.91-.12-13.82-.17-20.72a11.67,11.67,0,0,1,.95-5.29,8,8,0,0,1,3.68-3.71,8.88,8.88,0,0,1,3.66-1c1.18,0,2.33-.26,3.53-.25,5.78.06,11.57,0,17.35.07a13.25,13.25,0,0,1,5.1.77,7.76,7.76,0,0,1,3.65,2.92,8.1,8.1,0,0,1,1.37,3.81c0,.83.28,1.64.28,2.48,0,6.68,0,13.36-.05,20a11.9,11.9,0,0,1-.62,4A8.21,8.21,0,0,1,44,131.61a15.5,15.5,0,0,1-2,1A.7.7,0,0,1,41.53,132.71Z"/><path class="cls-8" d="M27.22.75c.23.28-.22,1,.18,1.49.09.12.06.35.06.53,0,4.28.09,8.56,0,12.83a8.22,8.22,0,0,1-1.58,5.23,4.68,4.68,0,0,1-1.28,1,5.78,5.78,0,0,1-3,1c-.89,0-1.72.26-2.61.25-3.77-.05-7.54.07-11.3-.06A8.77,8.77,0,0,1,2.87,22,6,6,0,0,1,.78,19.86a5.53,5.53,0,0,1-.85-2.7c0-.82-.25-1.56-.24-2.37,0-3.93,0-7.86,0-11.79A9.6,9.6,0,0,1,0,1C.1.77,0,.54,0,.3A5.87,5.87,0,0,1,3.19-3.87a5.68,5.68,0,0,1,3.42-.68c.57.09,1-.27,1.6-.26,3.62,0,7.25,0,10.87,0,.76,0,1.51.27,2.27.31a6.48,6.48,0,0,1,2,.34,6.19,6.19,0,0,1,2.9,2.35A6.55,6.55,0,0,1,27.22.75Z"/><path class="cls-8" d="M66.56,26.9c.16-.51-.25-.92-.25-1.45,0-4.32,0-8.64,0-13A8,8,0,0,1,68,7.18a6,6,0,0,1,3.13-1.9c.66-.16,1.36-.11,2-.22a13.29,13.29,0,0,1,2.34-.2c3.56,0,7.13,0,10.69,0,.75,0,1.48.24,2.23.31a8.36,8.36,0,0,1,1.64.26A5.83,5.83,0,0,1,94.12,10a14.9,14.9,0,0,1,.11,1.51c.5,4.52.07,9.06.21,13.58a14.21,14.21,0,0,1-.33,2A3.88,3.88,0,0,1,94,28.28a6.18,6.18,0,0,1-2.08,3.23,8.91,8.91,0,0,1-2.76,1.24,3.7,3.7,0,0,1-1,.06c-.66,0-1.25.29-1.89.29-3.93,0-7.86,0-11.79,0-.7,0-1.4-.29-2.1-.31a6,6,0,0,1-2-.39,5.51,5.51,0,0,1-2.93-2.57A5.09,5.09,0,0,1,66.56,26.9Z"/><path class="cls-7" d="M69,108.2c0-1.82-.06-3.29,0-4.76a13,13,0,0,1,.46-3.23,5,5,0,0,1,4.29-3.48,73,73,0,0,1,10.66-.28,16.31,16.31,0,0,1,2,.29,5.92,5.92,0,0,1,1.81.34,5.11,5.11,0,0,1,2.5,2.18,7.91,7.91,0,0,1,.72,3c.48,3.26.16,6.53.19,9.79a9.76,9.76,0,0,1-.7,4.09,5.19,5.19,0,0,1-1.75,2,7,7,0,0,1-3.2.92,21.39,21.39,0,0,1-3.57.21c-2,0-4.11.07-6.16,0a14.11,14.11,0,0,1-3.88-.56,4.81,4.81,0,0,1-2.56-2.29,8.76,8.76,0,0,1-.67-2.79C68.82,111.68,69.19,109.76,69,108.2Z"/><path class="cls-7" d="M48,132.84a49.46,49.46,0,0,1,5.16.21,4.27,4.27,0,0,1,3.62,2.89,8.11,8.11,0,0,1,.39,2.89q.12,3.16,0,6.35a6.57,6.57,0,0,1-1.08,4.17A4.09,4.09,0,0,1,53.34,151a76.48,76.48,0,0,1-8.29.2,12.62,12.62,0,0,1-3.24-.41A4.07,4.07,0,0,1,40,149.6a4.11,4.11,0,0,1-1-2.51,50.65,50.65,0,0,1-.24-8.17,11,11,0,0,1,.63-3.58,3.22,3.22,0,0,1,1-1.22,4.67,4.67,0,0,1,3-1.18C44.89,132.83,46.43,132.86,48,132.84Z"/><path class="cls-7" d="M19.36,43c-1-.08-1.89-.11-2.76-.22a3.09,3.09,0,0,1-2.24-2.19,13.11,13.11,0,0,1-.25-4.24,7.68,7.68,0,0,1,.48-2.08,2.26,2.26,0,0,1,1.55-1.37,8.89,8.89,0,0,1,4.1-.32c.41.07.82,0,1.24.08A3.4,3.4,0,0,1,24,34.25a5.89,5.89,0,0,1,.44,2.15,13,13,0,0,1-.11,3.73,3,3,0,0,1-2.8,2.64C20.74,42.79,20,42.94,19.36,43Z"/><path class="cls-9" d="M75.5,51.18c4,0,8.07,0,12.1,0a5.58,5.58,0,0,1,5.18,2.88A5.67,5.67,0,0,1,93.47,57c0,5,.08,10,0,15a5.25,5.25,0,0,1-4.3,5.21,8.28,8.28,0,0,1-2.1.26c-4.52,0-9,0-13.57,0a6.63,6.63,0,0,1-3.79-1,5.5,5.5,0,0,1-2.27-3.25,1.27,1.27,0,0,0-1.18-1,2.57,2.57,0,0,0-.48,0c-7.09,0-14.18,0-21.27,0a8,8,0,0,1-6.39-2.75,7.28,7.28,0,0,1-1.81-4.89c0-7.68,0-15.36,0-23a4.71,4.71,0,0,1,.37-2.06.7.7,0,0,1,.12.61,2.25,2.25,0,0,1,0,.22,27.78,27.78,0,0,0-.14,4.08c0,6.39,0,12.79,0,19.18a13.87,13.87,0,0,0,.27,2.66,13.1,13.1,0,0,0,1.33,2.61,7.14,7.14,0,0,0,4.33,2.74l1,.22c2.39.24,4.79.13,7.19.14,4.91,0,9.83,0,14.75,0a3.18,3.18,0,0,0,1-.07c.88,0,1.25.28,1.49,1.2a5.15,5.15,0,0,0,2.5,3.24,6.26,6.26,0,0,0,3.23.76q6.76,0,13.54,0a7.82,7.82,0,0,0,3.08-.63c.73-.31,1.14-1,1.73-1.43.2-.14.41-.27.44-.56.26-.66.41-1.37.67-2a23.57,23.57,0,0,0,.16-3c0-3,0-6,0-9A30.83,30.83,0,0,0,93,56.15L93,56a2.09,2.09,0,0,0-.18-.89l-.05-.17a1,1,0,0,0-.32-.78.62.62,0,0,1-.14-.18,1.77,1.77,0,0,0-.3-.45.64.64,0,0,1-.1-.13,1.37,1.37,0,0,0-.68-.6,2.07,2.07,0,0,1-.67-.5.91.91,0,0,0-.84-.3,3.61,3.61,0,0,1-1.16-.3,20.53,20.53,0,0,0-2.48-.18c-3,0-6,0-9.07,0a6.25,6.25,0,0,0-1,0C75.78,51.49,75.54,51.5,75.5,51.18Z"/><path class="cls-10" d="M75.5,51.18l.37.25a.44.44,0,0,1-.27.14,1,1,0,0,1-.76-.14,1.65,1.65,0,0,0-.47-.48,1.37,1.37,0,0,1-.14-.82c0-2.81,0-5.62,0-8.42a2.15,2.15,0,0,0-.06-.67,2.74,2.74,0,0,1-.18-1.1,7.11,7.11,0,0,0-3.93-5,7.58,7.58,0,0,0-3.78-.74c-.3,0-.6,0-.91,0h-20a13.8,13.8,0,0,0-3.21.2,6.73,6.73,0,0,0-4,2.66,6.93,6.93,0,0,0-1.25,2.59c0,.16,0,.39-.3.37v-.61a5.1,5.1,0,0,1,1.29-2.69,7.7,7.7,0,0,1,6.43-2.94c7.47,0,14.94,0,22.41,0a7.48,7.48,0,0,1,6.67,3.66,8.3,8.3,0,0,1,1.21,4.41q0,4,0,8.06A1.19,1.19,0,0,0,75.5,51.18Z"/><path class="cls-9" d="M10.1,98.37a5,5,0,0,1,2.1-2.68A8.61,8.61,0,0,1,17.71,94c7.27,0,14.54-.07,21.81,0a7.55,7.55,0,0,1,6.76,3.61,7.74,7.74,0,0,1,1.22,4c0,7.74.07,15.48,0,23.22a7.13,7.13,0,0,1-3.39,6.2,8.11,8.11,0,0,1-4.36,1.3c-7.65,0-15.31,0-23,0a7.16,7.16,0,0,1-6.68-4.17,8.84,8.84,0,0,1-.94-4.1c0-7.43,0-14.86,0-22.3a6.09,6.09,0,0,1,1-3.38c.21.25.09.52,0,.75a11.37,11.37,0,0,0-.66,4.43c0,6.45,0,12.91,0,19.36a13.34,13.34,0,0,0,.43,3.68,7.18,7.18,0,0,0,1.78,3.14,7.42,7.42,0,0,0,3.23,1.94,9.76,9.76,0,0,0,2.89.37c7.08,0,14.17,0,21.25,0a6.84,6.84,0,0,0,3.88-.81c.12-.06.23-.13.35-.18a2,2,0,0,0,.6-.29l.14-.09c.26-.13.43-.39.71-.51a1.2,1.2,0,0,0,.64-.65c.11-.25.34-.42.47-.66l.09-.13a1.17,1.17,0,0,0,.27-.56.8.8,0,0,1,.15-.29,1.73,1.73,0,0,0,.38-.89l.06-.18a14.39,14.39,0,0,0,.43-2.53,3.49,3.49,0,0,0,0-.79V102.94a3,3,0,0,0-.05-.79,22.32,22.32,0,0,0-.4-2.56,2.33,2.33,0,0,0-.53-1.12,8.86,8.86,0,0,0-1.94-2.33,7.08,7.08,0,0,0-3.6-1.51,11.14,11.14,0,0,0-1.52-.13H17.6a8.29,8.29,0,0,0-4.75,1.29,8.16,8.16,0,0,0-1.78,1.74,6.36,6.36,0,0,1-.43.59C10.48,98.26,10.35,98.44,10.1,98.37Z"/><path class="cls-11" d="M26.85,9.15c0,2.52,0,5,0,7.57a5.48,5.48,0,0,1-2.71,4.87,6,6,0,0,1-3.12.86c-4.95,0-9.9.05-14.85,0A5.47,5.47,0,0,1,.85,19a5.9,5.9,0,0,1-.53-2.35c0-5,0-10.06,0-15.09a5.51,5.51,0,0,1,2.4-4.68A6.14,6.14,0,0,1,6.27-4.17q7-.06,14.06,0a7,7,0,0,1,4.44,1.33,5.38,5.38,0,0,1,1.7,2.46,6.86,6.86,0,0,1,.39,2.63C26.82,4.54,26.85,6.84,26.85,9.15Z"/><path class="cls-11" d="M66.94,19c0-2.45,0-4.89,0-7.33a5.71,5.71,0,0,1,1.43-4.2,5.77,5.77,0,0,1,3.36-1.87,12.21,12.21,0,0,1,2.09-.11c4.56,0,9.12,0,13.68,0a6.48,6.48,0,0,1,3.68,1,5.92,5.92,0,0,1,2.54,3.78,5.7,5.7,0,0,1,.13,1.54c0,4.83,0,9.65,0,14.48a6.23,6.23,0,0,1-.35,2.35,6.46,6.46,0,0,1-1.75,2.52A5.94,5.94,0,0,1,88,32.51c-1.7,0-3.42,0-5.12,0-3.2,0-6.4,0-9.59,0a6.6,6.6,0,0,1-2.42-.33,5.89,5.89,0,0,1-3.33-2.77A5.62,5.62,0,0,1,67,26.73C66.93,24.15,66.94,21.56,66.94,19Z"/><path class="cls-12" d="M69.63,108.16c0-2.09,0-3.8,0-5.51a6.94,6.94,0,0,1,.62-2.94A4.58,4.58,0,0,1,73.5,97.3,10.74,10.74,0,0,1,76.22,97C79.13,97,82,97,85,97a9,9,0,0,1,3.11.48,4.74,4.74,0,0,1,3,4c.26,3.84.1,7.69.1,11.53a5.54,5.54,0,0,1-.94,3.52,4.93,4.93,0,0,1-3.72,2c-3.49.24-7,0-10.49.11a13.85,13.85,0,0,1-2.72-.26,4.71,4.71,0,0,1-3.51-4.1C69.56,112.13,69.7,110,69.63,108.16Z"/><path class="cls-13" d="M47.9,150.52c-1.68,0-3.37.12-5,0a3.48,3.48,0,0,1-3-2.18,7.22,7.22,0,0,1-.5-2.74c0-2.38,0-4.76,0-7.14a5.21,5.21,0,0,1,1.29-3.83,3.56,3.56,0,0,1,2-1,8.32,8.32,0,0,1,1.32-.14c2.73,0,5.46,0,8.19,0a4.35,4.35,0,0,1,3.7,1.75,3.75,3.75,0,0,1,.63,1.68,16,16,0,0,1,.14,2.49c0,2.06,0,4.11,0,6.17a7.41,7.41,0,0,1-.44,2.67,4,4,0,0,1-3,2.23C51.35,150.64,49.63,150.5,47.9,150.52Z"/><path class="cls-9" d="M14.49,37.88a18,18,0,0,1,.08-2.2,2.82,2.82,0,0,1,2.61-2.62,15.84,15.84,0,0,1,4.07,0,2.94,2.94,0,0,1,2.46,1.74A5,5,0,0,1,24,36.71a17.61,17.61,0,0,1-.1,3.16,2.94,2.94,0,0,1-2.44,2.51,14.93,14.93,0,0,1-4.9-.11,2.72,2.72,0,0,1-1.95-2.09A14.13,14.13,0,0,1,14.49,37.88Z"/><path class="cls-14" d="M36.63,40.06A8.57,8.57,0,0,1,38,37.13c.09,0,.15,0,.18.07a.87.87,0,0,1-.26.72,5.7,5.7,0,0,0-1,3.29q0,11.68,0,23.37a6.45,6.45,0,0,0,1.5,4.21,7.48,7.48,0,0,0,6.17,2.76q9.13,0,18.27,0h3.36c1.12,0,1.52.3,1.83,1.4a5.73,5.73,0,0,0,1,2A4.52,4.52,0,0,0,70.31,76a6,6,0,0,0,2.44.69c4.72.27,9.44.08,14.16.09a5.81,5.81,0,0,0,4.48-1.57,4.91,4.91,0,0,0,1.3-2.95,38.66,38.66,0,0,0,.11-4.69c0-3.3,0-6.6,0-9.9a9.31,9.31,0,0,0-.24-2.17A4.71,4.71,0,0,0,88.33,52c-4.23-.26-8.46-.05-12.69-.11a1.5,1.5,0,0,1-1.47-.68A5.89,5.89,0,0,1,74,49.55c0-2.54,0-5.08,0-7.62,0-.72-.24-1.4-.18-2.11.12-.22.23-.16.34,0a2.94,2.94,0,0,0,.13,1.1,11.29,11.29,0,0,1,.06,1.93v7.07a.43.43,0,0,0,.06.29c0,.24-.1.52.12.73a1.19,1.19,0,0,1,.37.37c.21.22.49.08.73.12a3,3,0,0,0,1.08,0c3.4,0,6.79,0,10.19,0a13.76,13.76,0,0,1,1.81.12,2.94,2.94,0,0,0,1.1.25,2.5,2.5,0,0,1,.86.36c.13.25.41.33.61.49a3,3,0,0,1,.73.74h0c.11.17.25.31.37.48l.12.13a2.59,2.59,0,0,1,.37.85V55a4.4,4.4,0,0,1,.24.86V56a12.28,12.28,0,0,1,.12,1.82q0,6.49,0,13a12.37,12.37,0,0,1-.12,1.82c-.2.65-.41,1.3-.61,2-.11.17-.26.32-.37.49-.51.31-.78.87-1.28,1.2a6.68,6.68,0,0,1-3.71,1c-4.54,0-9.08,0-13.62,0a5.78,5.78,0,0,1-5.33-2.83,4.79,4.79,0,0,1-.5-1.3A1.23,1.23,0,0,0,66.45,72q-10.52,0-21,0a17.59,17.59,0,0,1-2.18-.12,7.39,7.39,0,0,1-6.36-5.18,1.06,1.06,0,0,0-.12-.2,16.42,16.42,0,0,1-.31-3.36q0-10.12,0-20.26a19.87,19.87,0,0,1,.18-2.78Z"/><path class="cls-15" d="M43.23,71.84H65.7c.25,0,.53-.1.75.11a1.24,1.24,0,0,1-.71.13c-6.85,0-13.7,0-20.55,0A5.92,5.92,0,0,1,43.23,71.84Z"/><path class="cls-15" d="M93.1,72.58V56a5.63,5.63,0,0,1,.24,1.72q0,6.6,0,13.19A5.63,5.63,0,0,1,93.1,72.58Z"/><path class="cls-10" d="M36.63,40.06c-.13,8.8-.35,17.61.12,26.4a5.43,5.43,0,0,1-.35-2.18c0-7.54,0-15.08,0-22.63A4.59,4.59,0,0,1,36.63,40.06Z"/><path class="cls-15" d="M88.7,51.55H76.32c-.24,0-.5.09-.7-.12h.25a1.22,1.22,0,0,1,.7-.12c3.48,0,7,0,10.42,0A5.23,5.23,0,0,1,88.7,51.55Z"/><path class="cls-15" d="M92,53.39a2.71,2.71,0,0,1-.73-.74A1,1,0,0,1,92,53.39Z"/><path class="cls-15" d="M92.86,54.85a2.78,2.78,0,0,1-.37-.85A.84.84,0,0,1,92.86,54.85Z"/><path class="cls-15" d="M90.66,52.16a3,3,0,0,1-.86-.36A.86.86,0,0,1,90.66,52.16Z"/><path class="cls-15" d="M93.1,55.83a1.82,1.82,0,0,1-.24-.86C93.14,55.2,93.1,55.52,93.1,55.83Z"/><path class="cls-15" d="M92.37,53.87a.56.56,0,0,1-.37-.48A.56.56,0,0,1,92.37,53.87Z"/><path class="cls-15" d="M92.12,75a.58.58,0,0,1,.37-.49A.58.58,0,0,1,92.12,75Z"/><path class="cls-15" d="M38.09,37.13H38a6.21,6.21,0,0,1,2.45-2.21,8.09,8.09,0,0,1,4.51-.85h.43c6.64,0,13.28,0,19.91,0a19.5,19.5,0,0,1,3.74.26,2.75,2.75,0,0,1,1.23.61l-.08.07a.88.88,0,0,1-.71-.09A7.2,7.2,0,0,0,67,34.48c-7-.23-14-.06-21-.09a25.63,25.63,0,0,0-3.28.14,7,7,0,0,0-4.11,2.21C38.51,36.91,38.4,37.18,38.09,37.13Z"/><path class="cls-15" d="M74.15,39.82l-.24-.13a4.52,4.52,0,0,1-.71-1.38,7.05,7.05,0,0,0-2.52-2.81c-.21-.14-.49-.23-.44-.57h0a6.3,6.3,0,0,1,3,2.66A6.5,6.5,0,0,1,74.15,39.82Z"/><path class="cls-15" d="M74.4,50.21c-.21-.2-.12-.46-.12-.7,0-2.86,0-5.73,0-8.59a3,3,0,0,1,.17,1.6C74.33,45.08,74.45,47.64,74.4,50.21Z"/><path class="cls-15" d="M74.89,51.31a.74.74,0,0,1-.37-.37A.35.35,0,0,1,74.89,51.31Z"/><path class="cls-16" d="M43.35,131.13l-.24.12a9.22,9.22,0,0,1-4.44.84q-10.38,0-20.75,0a10.59,10.59,0,0,1-3.65-.53,7.13,7.13,0,0,1-3.06-2.21,7.75,7.75,0,0,1-1.72-5.26,6.94,6.94,0,0,1-.05-.91V103.29a4,4,0,0,1,.05-.85c0-.08,0-.15,0-.23a11.84,11.84,0,0,0,.11-1.57,1.84,1.84,0,0,1,.16-.7c.1-.16.14-.34.24-.49s.21-.18.31,0a.63.63,0,0,1,0,.36,12.79,12.79,0,0,0-.31,3.7c0,7,0,14,0,21a6.71,6.71,0,0,0,3.67,6.23,5.85,5.85,0,0,0,2.81.73H40.11a4,4,0,0,0,1-.11,4.32,4.32,0,0,0,2-.66c.44-.23.75-.7,1.31-.7a.24.24,0,0,1,.1.14c-.06.32-.34.45-.56.64h0A3.81,3.81,0,0,0,43.35,131.13Z"/><path class="cls-17" d="M44.45,130.15V130c-.08-.3.17-.43.31-.61.36-.46.65-1,1-1.41a1.44,1.44,0,0,0,.3-.54c0-.06,0-.13.08-.19a8.53,8.53,0,0,0,.56-3.16q0-10.86,0-21.73a8.8,8.8,0,0,0-.55-3.22A1.42,1.42,0,0,1,46.1,99a2.17,2.17,0,0,0-.51-.88,1.19,1.19,0,0,1-.26-.41.77.77,0,0,0-.37-.46,2.36,2.36,0,0,1-.61-.61.77.77,0,0,0-.46-.37,2.07,2.07,0,0,1-.54-.39,3.42,3.42,0,0,0-1.65-.72l-.2-.07a11.86,11.86,0,0,0-2.65-.32H17.91c-.54,0-1.05.15-1.58.14l-.2,0a4.22,4.22,0,0,0-1.56.35c-.42.15-.8.38-1.22.52a4.07,4.07,0,0,0-1.89,1.54l-.1.13a1.37,1.37,0,0,0-.43.67.42.42,0,0,1-.16.19.29.29,0,0,1-.33,0,.19.19,0,0,1,0-.24,7.63,7.63,0,0,1,2-2.23A7,7,0,0,1,16,94.45a22,22,0,0,1,3-.11c6.82,0,13.65,0,20.47,0a7.58,7.58,0,0,1,6.39,3.16,10.38,10.38,0,0,1,.56,1c.1.4.42.71.43,1.14a13.63,13.63,0,0,1,.42,3.3q0,10.35,0,20.69a10.33,10.33,0,0,1-.48,3.35h0c-.13.32-.24.65-.36,1a.26.26,0,0,0-.13.24c-.15.19-.21.43-.36.61h0c-.16.29-.48.44-.58.76a1.81,1.81,0,0,1-.66.63C44.6,130.21,44.52,130.23,44.45,130.15Z"/><path class="cls-15" d="M10.47,98.12v.25a3.36,3.36,0,0,1-.13.63.77.77,0,0,1-.07.16c-.29.19-.26.54-.41.8l-.12.61c-.15.52,0,1.06-.13,1.59v.12a1.12,1.12,0,0,0-.06.6v20.68a1.12,1.12,0,0,0,.06.6,7.39,7.39,0,0,0,1.18,4.45A7.21,7.21,0,0,0,13.37,131a8.84,8.84,0,0,0,4.51.95q8,.06,15.94,0c3.11,0,6.26.35,9.29-.72a4.34,4.34,0,0,1-2.86.84c-7,.31-14,0-21.06.14a16.69,16.69,0,0,1-3.94-.28,6.27,6.27,0,0,1-3.5-1.88,11,11,0,0,1-1.51-2,8.69,8.69,0,0,1-.87-3.69c-.29-7.1-.07-14.21-.1-21.31a9.44,9.44,0,0,1,.65-4,3.43,3.43,0,0,0,.18-.7h0Z"/><path class="cls-15" d="M46.77,127c.76-5.25.21-10.53.36-15.79.06-2,0-3.91,0-5.86a25.48,25.48,0,0,0-.37-5.85c0-.06.08-.06.13,0a10.09,10.09,0,0,1,.36,2.57,1.08,1.08,0,0,1,.06.59v21.18a1.08,1.08,0,0,1-.06.59A5.54,5.54,0,0,1,46.77,127Z"/><path class="cls-15" d="M47.26,124.4V102c.2.18.12.41.12.63q0,10.55,0,21.1C47.38,124,47.46,124.22,47.26,124.4Z"/><path class="cls-15" d="M44.7,130.15a1.78,1.78,0,0,1,.61-.61q.06-.09.12,0a1,1,0,0,1-.73.73c-.05,0-.06-.05-.05-.08S44.68,130.15,44.7,130.15Z"/><path class="cls-15" d="M46.9,99.47h-.13a1.66,1.66,0,0,1-.36-1A1.9,1.9,0,0,1,46.9,99.47Z"/><path class="cls-15" d="M46.41,128a1.28,1.28,0,0,1,.36-1A1.28,1.28,0,0,1,46.41,128Z"/><path class="cls-15" d="M45.43,129.54h-.12c0-.37.35-.54.61-.74C45.91,129.15,45.54,129.26,45.43,129.54Z"/><path class="cls-15" d="M44.7,130.15v.12c-.28.11-.39.48-.74.49l.49-.61Z"/><path class="cls-15" d="M43.35,131.13a.59.59,0,0,1,.61-.37A.75.75,0,0,1,43.35,131.13Z"/><path class="cls-15" d="M45.92,128.8a.76.76,0,0,1,.36-.61A.73.73,0,0,1,45.92,128.8Z"/><path class="cls-12" d="M6.68,22.21a6,6,0,0,1-4.29-1.37A4.79,4.79,0,0,1,.7,17.69c-.55-5-.15-10-.24-15.06A8.65,8.65,0,0,1,1-.75,5.21,5.21,0,0,1,3.06-3,7.46,7.46,0,0,1,6.9-4C11.11-4.2,15.32-4,19.53-4a11.11,11.11,0,0,1,4,.64,4.74,4.74,0,0,1,2.2,2,7.59,7.59,0,0,1,.94,4.2c0,4.14,0,8.27,0,12.41a15,15,0,0,1-.53,3.83,3.11,3.11,0,0,1-1,1.38,5,5,0,0,1-3.51,1.66c-.19.15-.43,0-.62.12h-.61a.76.76,0,0,1-.47.06H7.16A.8.8,0,0,1,6.68,22.21Z"/><path class="cls-15" d="M6.68,22.21H20.49c-.18.2-.42.12-.63.12q-6.27,0-12.55,0C7.1,22.33,6.86,22.41,6.68,22.21Z"/><path class="cls-15" d="M21.1,22.21c.18-.2.41-.09.62-.12C21.54,22.3,21.31,22.19,21.1,22.21Z"/><path class="cls-18" d="M67.31,18.93c0-2.42,0-4.85,0-7.27,0-3.12,1.79-5.35,4.92-5.72a10.7,10.7,0,0,1,1.39-.1c4.4,0,8.8,0,13.2,0a7.76,7.76,0,0,1,3.54.65A4.88,4.88,0,0,1,93,9.38a10.82,10.82,0,0,1,.44,3.47c0,4.45,0,8.89,0,13.33a5.73,5.73,0,0,1-1.36,4A5.34,5.34,0,0,1,88.53,32c-2.7.27-5.41.08-8.11.12-2.22,0-4.44,0-6.66,0A6.74,6.74,0,0,1,69.45,31a5.09,5.09,0,0,1-1.67-2.19A10.1,10.1,0,0,1,67.3,25C67.32,23,67.31,21,67.31,18.93Z"/><path class="cls-19" d="M70.12,107.79c0-1.85,0-3.71,0-5.56a4.27,4.27,0,0,1,2.7-4.29A5.72,5.72,0,0,1,75,97.52c3.55,0,7.09,0,10.63,0a5.08,5.08,0,0,1,3.64,1.28A4.39,4.39,0,0,1,90.65,102c0,3.93.08,7.87,0,11.79a4.19,4.19,0,0,1-3.76,4.26,8.4,8.4,0,0,1-1.58.11c-3.44,0-6.88,0-10.32,0a5.62,5.62,0,0,1-2-.32,4.22,4.22,0,0,1-2.83-4.12v-5.93Z"/><path class="cls-20" d="M41.15,149.34a3.49,3.49,0,0,1-1.35-2.7c-.22-2.2-.08-4.41-.11-6.62a9.41,9.41,0,0,1,.73-4.74,1.3,1.3,0,0,1,.61-.55c.21-.06.34-.38.62-.16a.42.42,0,0,1-.21.41,2.66,2.66,0,0,0-1.07,1.81,66.73,66.73,0,0,0-.14,7.35,11.81,11.81,0,0,0,.1,2.72,3.87,3.87,0,0,0,.81,1.81,2.19,2.19,0,0,0,1.76,1,15.76,15.76,0,0,0,2.18.17c1.8,0,3.61,0,5.42,0a10.44,10.44,0,0,0,1.76-.09,1.24,1.24,0,0,1,1.1.15c-.21.36-.59.28-.9.28-3,0-6,0-9,0A3.44,3.44,0,0,1,41.15,149.34Z"/><path class="cls-21" d="M56.19,146.9V147c-.15.18,0,.43-.13.61s-.22.76-.61,1l-.06-.09a.48.48,0,0,1,0-.24,8.8,8.8,0,0,0,.5-3.77c0-2.22,0-4.43,0-6.65a3.75,3.75,0,0,0-1.26-3,5.89,5.89,0,0,0-1.83-.77.15.15,0,0,1,0-.19,1.26,1.26,0,0,1,.72,0,5.7,5.7,0,0,1,1.46.73,1.19,1.19,0,0,1,.37.37l.49.85c.13.14.15.34.24.49h0c.15.19,0,.43.13.61v.13a.72.72,0,0,1,.05.41c0,3,0,6,0,8.95A.75.75,0,0,1,56.19,146.9Z"/><path class="cls-21" d="M41.64,134.55l-.61.24s-.06,0,0-.08,0,0,0,0c.13-.25.41-.32.61-.49a6.23,6.23,0,0,1,.73-.24l.61-.12a.68.68,0,0,1,.42-.06h9a.65.65,0,0,1,.41.06s.06.05,0,.08,0,0,0,0h0c-.23.23-.53.17-.81.17-2.4,0-4.8,0-7.2,0a8.47,8.47,0,0,0-3,.44Z"/><path class="cls-13" d="M56.19,146.9v-9.78c.18.16.11.37.12.57v8.64C56.3,146.52,56.37,146.74,56.19,146.9Z"/><path class="cls-13" d="M52.76,133.82H43c.16-.19.38-.12.57-.12h8.64C52.39,133.7,52.6,133.63,52.76,133.82Z"/><path class="cls-13" d="M41,134.67v.12l-.61.49A.71.71,0,0,1,41,134.67Z"/><path class="cls-13" d="M42.37,133.94a1.13,1.13,0,0,1-.73.24A.83.83,0,0,1,42.37,133.94Z"/><path class="cls-13" d="M52.76,133.94v-.12c.25,0,.52-.1.74.12Z"/><path class="cls-13" d="M56.19,137c-.21-.17-.1-.4-.13-.61C56.27,136.55,56.16,136.79,56.19,137Z"/><path class="cls-13" d="M56.06,136.38a.65.65,0,0,1-.24-.49A.44.44,0,0,1,56.06,136.38Z"/><path class="cls-13" d="M55.33,135a.78.78,0,0,1-.37-.37A.35.35,0,0,1,55.33,135Z"/><path class="cls-14" d="M14.74,37.53a8.59,8.59,0,0,1,.15-2,2.66,2.66,0,0,1,2.36-2.19,19.68,19.68,0,0,1,3.76,0,2.56,2.56,0,0,1,2.57,2.17,11.16,11.16,0,0,1,0,4.46,2.48,2.48,0,0,1-2.25,2.16A11.52,11.52,0,0,1,16.82,42a2.43,2.43,0,0,1-2-2.38C14.79,39,14.76,38.35,14.74,37.53Z"/><path class="cls-18" d="M70.24,34.93c.49.57,1.21.85,1.73,1.4a8.13,8.13,0,0,1,1.94,3.36c.48,2.81.15,5.64.24,8.46a21.88,21.88,0,0,0,.13,3c-.5-.16-.41-.6-.41-1,0-2.21,0-4.43,0-6.64a16.22,16.22,0,0,0-.14-3,13.34,13.34,0,0,0-.78-2.14l-.1-.15a1.34,1.34,0,0,0-.37-.54.8.8,0,0,1-.15-.21A5.84,5.84,0,0,0,69,35l-.17,0a3,3,0,0,0-1.07-.2l-.2,0c-7.25,0-14.49,0-21.74,0-.87,0-1.75,0-2.62,0l-.2.05c-.34,0-.7,0-1,.21a7,7,0,0,0-3.58,2.55c-.21.3-.38.62-.57.93a1.78,1.78,0,0,0-.23.67,8.15,8.15,0,0,1-.29,1,6.94,6.94,0,0,0-.14,1.76V64.15a9,9,0,0,0,0,1,5.46,5.46,0,0,0,.56,2.1,1.81,1.81,0,0,0,.36.65l.09.14a2.16,2.16,0,0,1,.24.61.32.32,0,0,1-.1.22,6,6,0,0,1-1.47-3.19,20,20,0,0,1-.12-3.28q0-10.45,0-20.92a6.28,6.28,0,0,1,1.13-3.89,1.83,1.83,0,0,0,.21-.5,8.34,8.34,0,0,1,3.52-2.51,5.49,5.49,0,0,1,1.48-.3c2.8-.17,5.6-.12,8.41-.12,3.76,0,7.53,0,11.29,0,1.67,0,3.33.16,5,.15a4.49,4.49,0,0,1,1.82.46A1.3,1.3,0,0,0,70.24,34.93Z"/><path class="cls-20" d="M73.79,40.31A4.9,4.9,0,0,1,74,41.84v8.37a1.39,1.39,0,0,0,.25,1,1.87,1.87,0,0,0,1.44.51q5.69,0,11.36,0a9.35,9.35,0,0,1,2.35.3,5,5,0,0,1,3.43,4.33c.26,4.95.08,9.89.1,14.84a5.39,5.39,0,0,1-1.58,4.31,5.18,5.18,0,0,1-3.18,1.39c-4.82.29-9.64.09-14.47.1a6,6,0,0,1-3.49-.83c-.09-.12-.39-.15-.2-.41.61.06,1.08.5,1.68.57a17.49,17.49,0,0,0,3.15.28c3.53,0,7,0,10.57,0a28.26,28.26,0,0,0,2.92-.15,4.39,4.39,0,0,0,3.35-2.2c.08-.12.14-.25.23-.36a1.05,1.05,0,0,0,.33-.6c0-.06,0-.13.08-.2a6.3,6.3,0,0,0,.21-1.56q0-7.23,0-14.45a5.54,5.54,0,0,0-.26-1.62,1.83,1.83,0,0,1-.18-.46c0-.19,0-.39-.23-.52a1.14,1.14,0,0,1-.26-.42,2.78,2.78,0,0,0-1.38-1.24.64.64,0,0,1-.29-.16c-.16-.2-.4-.21-.62-.27l-.19-.07a7.43,7.43,0,0,0-1.69-.2H75.83A2.64,2.64,0,0,1,74.75,52l-.2-.07a2.05,2.05,0,0,1-.61-.6,1,1,0,0,1-.09-.21,2.56,2.56,0,0,1-.11-1V42.63a7.06,7.06,0,0,0-.09-1.52A.81.81,0,0,1,73.79,40.31Z"/><path class="cls-22" d="M70,75.75l.24.37A4.44,4.44,0,0,1,68,73.2c-.41-1.33-.56-1.48-1.94-1.48-7.2,0-14.41,0-21.61,0a7.28,7.28,0,0,1-6.06-2.8v-.25c.28-.08.38.15.52.3a1.79,1.79,0,0,0,.45.46l.19.15a1.2,1.2,0,0,0,.51.35l.13.1c.31.41.8.48,1.23.67a10.16,10.16,0,0,0,3.89.6c6.94,0,13.89,0,20.83,0,1.48,0,1.82.22,2.26,1.61a4.73,4.73,0,0,0,1.37,2.26C69.88,75.33,70.06,75.49,70,75.75Z"/><path class="cls-23" d="M10.22,99.1s0-.08,0-.12c.17-.24.29-.51.48-.73l.13-.13c.07-.3.33-.48.49-.73h0a6.67,6.67,0,0,1,1.95-1.71l1.22-.49a7.82,7.82,0,0,1,1.59-.37h0c.62,0,1.24-.18,1.87-.18,7,0,13.91,0,20.87,0a9.75,9.75,0,0,1,2.93.42h0a5.89,5.89,0,0,1,1.71.73l.49.37c.17.11.32.26.49.36a1.9,1.9,0,0,0,.61.62c.11.17.25.32.37.48l.24.37c.2.27.29.6.49.86a9.16,9.16,0,0,1,.67,3.62V124a9.16,9.16,0,0,1-.67,3.62,1.86,1.86,0,0,0-.24.49l-1.47,2a6.57,6.57,0,0,0-1.22.73c-.11.07-.2.08-.29,0a.41.41,0,0,1,0-.22.8.8,0,0,1,.35-.33,6.59,6.59,0,0,0,3.07-5.82c0-7.49,0-15,0-22.47a5.29,5.29,0,0,0-.86-3.24,1.75,1.75,0,0,1-.38-.55,1,1,0,0,0-.56-.76,3.32,3.32,0,0,1-.53-.53c-.18-.38-.55-.51-.89-.7a5.5,5.5,0,0,0-1.19-.52A9.12,9.12,0,0,0,39,95.12c-3.59,0-7.19,0-10.78,0-3.32,0-6.63,0-9.95,0a8.84,8.84,0,0,0-4.8,1.09,6.06,6.06,0,0,0-3.09,4.57c-.06.36-.12.72-.2,1.08a3.32,3.32,0,0,0,0,.55V124.1c0,.14,0,.28,0,.42a1.6,1.6,0,0,0,.05.21c.07.28,0,.58.11.87s.16.69.25,1a1.69,1.69,0,0,0,.2.61,1.37,1.37,0,0,1,.13.2c.05.12.09.25.14.37a2.2,2.2,0,0,0,.32.53l.15.18a2.29,2.29,0,0,0,.32.43,1.13,1.13,0,0,1,.1.13,1.94,1.94,0,0,0,.57.57l.13.1a2.93,2.93,0,0,0,.64.47l.17.11a7.61,7.61,0,0,0,4,1H39.17a14.78,14.78,0,0,0,1.76-.18,1.22,1.22,0,0,1,.6,0c.31.41-.21.2-.26.34a6.82,6.82,0,0,1-1.75.13c-7.66,0-15.32,0-23,0A6.38,6.38,0,0,1,11.43,129a7.41,7.41,0,0,1-1.57-4.8c0-5.44,0-10.87,0-16.31,0-2.86-.3-5.73.35-8.56A.18.18,0,0,1,10.22,99.1Z"/><path class="cls-17" d="M9.61,124.16c-.2-.18-.11-.42-.12-.63V102.91c0-.21-.08-.45.12-.63Z"/><path class="cls-24" d="M43,130.76h.25a4.07,4.07,0,0,1-2,.73l.37-.24A1.43,1.43,0,0,1,43,130.76Z"/><path class="cls-17" d="M9.61,102.16a3.3,3.3,0,0,1,.13-1.59C9.67,101.1,9.88,101.65,9.61,102.16Z"/><path class="cls-17" d="M10.22,99.1v.25c-.19.16-.13.47-.36.61C9.91,99.64,9.9,99.3,10.22,99.1Z"/><path class="cls-24" d="M46.16,127.58c.88-2.56.59-5.22.61-7.85,0-4.85,0-9.7,0-14.55a19,19,0,0,0-.62-6.32,5.11,5.11,0,0,1,.72,2.84q0,11.52,0,23A5.11,5.11,0,0,1,46.16,127.58Z"/><path class="cls-24" d="M41.76,95.07c-5.68-.76-11.39-.21-17.09-.36-2.07,0-4.14,0-6.22,0-.79,0-1.56.21-2.36.13a4.6,4.6,0,0,1,1.6-.23c7.12,0,14.24,0,21.37,0A5.27,5.27,0,0,1,41.76,95.07Z"/><path class="cls-16" d="M13.28,95.68l-1.95,1.71A3.56,3.56,0,0,1,13.28,95.68Z"/><path class="cls-24" d="M43.47,95.8l-1.71-.73A2.54,2.54,0,0,1,43.47,95.8Z"/><path class="cls-24" d="M16.09,94.82a7.82,7.82,0,0,1-1.59.37A2.62,2.62,0,0,1,16.09,94.82Z"/><path class="cls-16" d="M10.71,98.25c-.09.28-.11.63-.48.73a.71.71,0,0,1,.24-.61Z"/><path class="cls-24" d="M46.16,98.86a1.35,1.35,0,0,1-.49-.86A1.33,1.33,0,0,1,46.16,98.86Z"/><path class="cls-16" d="M11.33,97.39c0,.33-.33.49-.49.73C10.8,97.75,11.06,97.56,11.33,97.39Z"/><path class="cls-24" d="M45.43,97.63a.56.56,0,0,1-.37-.48A.56.56,0,0,1,45.43,97.63Z"/><path class="cls-24" d="M44.45,96.53a.58.58,0,0,1-.49-.36A.58.58,0,0,1,44.45,96.53Z"/><path class="cls-24" d="M45.92,128.07c0-.21,0-.4.24-.49A.65.65,0,0,1,45.92,128.07Z"/><path class="cls-20" d="M1.67-1.13l.24-.37a5.27,5.27,0,0,1,3.74-2,20.82,20.82,0,0,1,2.49-.1q6.16,0,12.33,0a7.11,7.11,0,0,1,2.1.3,2.46,2.46,0,0,1,1.59.73A5.29,5.29,0,0,1,26.3,1.83c0,4.79,0,9.58,0,14.36A6.62,6.62,0,0,1,25.75,19h0c-.1.12-.15.27-.25.38s-.25.19-.31-.05a.51.51,0,0,1,.06-.3,7.4,7.4,0,0,0,.68-3.67c0-4.22,0-8.44,0-12.65a7.75,7.75,0,0,0-.37-2.82,4.63,4.63,0,0,0-4.3-3.07c-4.5-.29-9-.11-13.49-.11A11,11,0,0,0,5.15-3,4.53,4.53,0,0,0,1.57.17a9.62,9.62,0,0,0-.32,2.71c0,4.22,0,8.43,0,12.65a7.12,7.12,0,0,0,.58,3.33,3.31,3.31,0,0,0,.79,1.06,4.48,4.48,0,0,0,3.46,1.51c3.51.25,7,.06,10.54.11a46.57,46.57,0,0,0,4.87-.11,5,5,0,0,0,.65-.13,4.26,4.26,0,0,0,2.47-1.4c.16-.18.31-.44.63-.38.12.12.07.22,0,.32a5,5,0,0,1-2.55,1.76h0a8,8,0,0,1-2.33.31H6.4a5.74,5.74,0,0,1-3-.79h0A5.05,5.05,0,0,1,.89,16.59c0-5,0-9.92,0-14.88A6.51,6.51,0,0,1,1.06.46C1.07.29,1,.1,1.18,0A5.43,5.43,0,0,1,1.67-1.13Z"/><path class="cls-22" d="M25.75,19c.7-2,.47-4,.48-6,0-3.55,0-7.09,0-10.63a5.77,5.77,0,0,0-1.91-4.74,1.5,1.5,0,0,1-.18-.24A4.43,4.43,0,0,1,26.24.46,6.37,6.37,0,0,1,26.36,2c0,4.94,0,9.89,0,14.83A3.35,3.35,0,0,1,25.75,19Z"/><path class="cls-22" d="M1.06.46C.78,5.69,1,10.93.94,16.16A5.32,5.32,0,0,0,3.28,21a.56.56,0,0,1,.1.15A4.51,4.51,0,0,1,.93,17.78a10.14,10.14,0,0,1-.12-2.06V1.62A2.12,2.12,0,0,1,1.06.46Z"/><path class="cls-22" d="M3.38,21.11a10.56,10.56,0,0,0,4.75.75c3.34,0,6.68,0,10,0a23,23,0,0,0,4.54-.25,2.87,2.87,0,0,1-1.57.37c-5,0-10.06,0-15.09,0A3.86,3.86,0,0,1,3.38,21.11Z"/><path class="cls-22" d="M25.26,19.53c.16-.17.33-.33.49-.49a4.23,4.23,0,0,1-3.06,2.56A5.94,5.94,0,0,0,25,20c.12-.15.31-.26.31-.49Z"/><path class="cls-25" d="M69.88,7.3a3.53,3.53,0,0,1,2.19-.94c.72-.07,1.45-.16,2.18-.16H85.18a28.75,28.75,0,0,1,3.94.25,2.81,2.81,0,0,1,1.17.49A5,5,0,0,1,93,11.66Q93,19,93,26.32a6,6,0,0,1-.72,2.86h0c-.3.4-.47.95-1.09,1a.21.21,0,0,1,0-.2,6.71,6.71,0,0,0,1.45-4.77c0-4.37,0-8.75,0-13.12a7.83,7.83,0,0,0-.21-1.75,4.35,4.35,0,0,0-3.89-3.5,19.85,19.85,0,0,0-2.31-.11c-4.23,0-8.47,0-12.7,0a5.59,5.59,0,0,0-3.4,1c-.35.25-.58.64-1,.82-.34,0-.27-.2-.11-.37A6.18,6.18,0,0,1,69.88,7.3Z"/><path class="cls-25" d="M69.88,7.3c-.25.47-.84.67-1,1.22,0,0,0,.06,0,.08-.06.17-.17.32-.24.48l-.07.14a2,2,0,0,0-.19.5l0,.15a4.07,4.07,0,0,0-.2,1c0,.06,0,.13,0,.2,0,5.11,0,10.21,0,15.32a1.08,1.08,0,0,0,.09.53c.2.39.18.83.34,1.23a4.47,4.47,0,0,0,3.76,2.9,20.88,20.88,0,0,0,3.16.12H87a10.35,10.35,0,0,0,2.29-.31,3.57,3.57,0,0,0,1.27-.58c.17-.13.34-.32.59-.16h.13A2.7,2.7,0,0,1,89.5,31.3a8.88,8.88,0,0,1-2.77.33H73.62A7.25,7.25,0,0,1,70,30.77a4.61,4.61,0,0,1-2.21-4c-.25-4.8-.07-9.59-.09-14.39A7.41,7.41,0,0,1,68.3,9,3.67,3.67,0,0,1,69.88,7.3Z"/><path class="cls-26" d="M92.25,29.18c0-.48.31-.86.41-1.32a10,10,0,0,0,.2-2.11c0-4.71,0-9.43,0-14.15a4.89,4.89,0,0,0-2.42-4.48.9.9,0,0,1-.15-.18c1.29.32,2.6,2.22,2.68,3.68.29,5.24.07,10.48.11,15.72a6,6,0,0,1-.51,2.42C92.5,28.93,92.44,29.11,92.25,29.18Z"/><path class="cls-26" d="M70,30.77c.74.13,1.37.6,2.13.66.24,0,.48.07.72.07,5,0,10,0,15,0a4.67,4.67,0,0,0,3.47-1.33c.42-.23.62-.68,1-1a4,4,0,0,1-2.69,2.19,9.14,9.14,0,0,1-2.94.38H73.79a8.28,8.28,0,0,1-2.92-.47A1.5,1.5,0,0,1,70,30.77Z"/><path class="cls-27" d="M70.85,100.45a2.64,2.64,0,0,1,1.49-1.89,5.8,5.8,0,0,1,2.79-.7c3.15-.21,6.3-.08,9.45-.08a7.2,7.2,0,0,1,3.5.58,4,4,0,0,1,2.22,3.57c.22,3.51.08,7,.09,10.54a7.12,7.12,0,0,1-.36,2.74,1.3,1.3,0,0,1-.47.76l-.07-.08a.55.55,0,0,1,0-.31,1.72,1.72,0,0,1,.07-.21A5,5,0,0,0,90,113.3c0-3.64,0-7.29,0-10.93a4.31,4.31,0,0,0-.26-1.43A5.3,5.3,0,0,0,88,98.76a3.86,3.86,0,0,0-2.21-.58q-5.26,0-10.51,0a6.32,6.32,0,0,0-1.92.31l-.17.07a2,2,0,0,0-.72.32L72.3,99a3,3,0,0,0-.93,1c-.12.18-.18.42-.44.47Z"/><path class="cls-27" d="M89.56,116a1.89,1.89,0,0,1-1,1.1,4.76,4.76,0,0,1-2.33.75c-3.48.22-7,.08-10.44.08a7.26,7.26,0,0,1-3.14-.51,3.55,3.55,0,0,1-2.17-3.08c-.31-3.84-.13-7.69-.11-11.53a3.27,3.27,0,0,1,.45-2.33h0c.23.26.08.56,0,.82a8.78,8.78,0,0,0-.1,1.7v10.38a4.94,4.94,0,0,0,.29,1.79,3.68,3.68,0,0,0,1.33,1.64.57.57,0,0,1,.18.12,4.3,4.3,0,0,0,2.28.6c3.68,0,7.37,0,11.06,0a4.36,4.36,0,0,0,2.27-.62l.16-.11a2.92,2.92,0,0,0,.66-.51c.15-.14.27-.37.55-.29Z"/><path class="cls-28" d="M53.37,149.83c-2.93.2-5.87.12-8.81.11a6.43,6.43,0,0,1-2.5-.36c-.42-.19-.89-.32-1-.85.6.06,1,.6,1.6.68a7.64,7.64,0,0,0,1,.13H52.2a4.23,4.23,0,0,0,1.82-.43,1.37,1.37,0,0,0,.78-.82,5.93,5.93,0,0,0,.61-2.82c0-2.37,0-4.74,0-7.12a4,4,0,0,0-1.2-3.19,2.52,2.52,0,0,0-1.78-.68c-3,0-5.9,0-8.85,0a3.47,3.47,0,0,0-1.85.54c-.16.15-.33.29-.49.45a2.72,2.72,0,0,0-.56.78c-.08.16-.1.41-.39.38a2.26,2.26,0,0,1,.93-1.67c.14-.13.33-.22.42-.41h0a6.24,6.24,0,0,1,2.79-.54c2.38,0,4.77,0,7.15,0a6.88,6.88,0,0,1,1.81.19,3.29,3.29,0,0,1,2.54,3.33c.13,3,.15,6,0,9a3.3,3.3,0,0,1-2.55,3.33Z"/><path class="cls-25" d="M40.29,136.63c.34-.37.36-1,.86-1.22.13.18,0,.35-.07.5a4.88,4.88,0,0,0-.6,2.58c0,2.34,0,4.68,0,7a4.7,4.7,0,0,0,.6,2.58,2.52,2.52,0,0,0,1.71,1.16,7,7,0,0,0,1.58.17h7.08a4.2,4.2,0,0,0,3.17-1,.35.35,0,0,1,.34-.08c-.26.79-1,1-1.64,1.2a4.16,4.16,0,0,1-1.32.15c-2.69,0-5.37,0-8.06,0a4.1,4.1,0,0,1-2.91-1,3.44,3.44,0,0,1-1-2.6c0-2.76,0-5.52,0-8.28A2.88,2.88,0,0,1,40.29,136.63Z"/><path class="cls-20" d="M53.37,149.83a4.82,4.82,0,0,0,1.79-1.3,4.16,4.16,0,0,0,.65-1.86,26.17,26.17,0,0,0,.13-4c0-1.22,0-2.44,0-3.66a15.85,15.85,0,0,0-.32-2.65,3.21,3.21,0,0,0-2.7-2.21c-2.85-.26-5.69-.11-8.54-.11a9.16,9.16,0,0,0-2.74.47,3.26,3.26,0,0,1,2.22-.6c3,0,5.93,0,8.9,0,.31.21.7.13,1,.27A3.46,3.46,0,0,1,56,137.73c.09,2.84,0,5.69,0,8.54a7.1,7.1,0,0,1-.61,2.34,3.43,3.43,0,0,0-.85.85C54.17,149.52,53.84,149.91,53.37,149.83Z"/><path class="cls-29" d="M15,37.76a10.29,10.29,0,0,1,.14-2,2.22,2.22,0,0,1,2-2.12,11.52,11.52,0,0,1,4.22,0,2.39,2.39,0,0,1,2,2,11.3,11.3,0,0,1,0,4.1,2.67,2.67,0,0,1-2.61,2.12,22.07,22.07,0,0,1-3.15,0,2.48,2.48,0,0,1-2.46-2.16A9.43,9.43,0,0,1,15,37.76Z"/><path class="cls-28" d="M90,52.53a.26.26,0,0,0,.25.12A5.26,5.26,0,0,1,91.76,54l.24.36a2.23,2.23,0,0,1,.24.49c.05.12.09.25.13.37a7.92,7.92,0,0,1,.31,2.27q0,6.93,0,13.85a6.28,6.28,0,0,1-.3,2h0c-.12.15,0,.4-.25.49a4.85,4.85,0,0,1-4.45,2.83c-4.53.2-9.06.06-13.59.07a5.6,5.6,0,0,1-2.49-.33.44.44,0,0,1,.36-.15,1.36,1.36,0,0,1,.4,0,2.48,2.48,0,0,0,.72.06H87.28a5.25,5.25,0,0,0,2.89-.79,4.1,4.1,0,0,0,2-3.56c0-4.54,0-9.08,0-13.62a20.78,20.78,0,0,0-.08-2.49,4.36,4.36,0,0,0-4.06-3.41c-3.52,0-7,0-10.56,0A18.14,18.14,0,0,1,75,52.34a1.56,1.56,0,0,1-1.45-1.47,74.53,74.53,0,0,1-.1-8,8.2,8.2,0,0,0-1.3-5.15.47.47,0,0,1-.09-.28c.25-.4.3,0,.43.1l.13.13c.14.19.21.42.36.61h0a6.44,6.44,0,0,1,.8,2.64c.26,3.19,0,6.37.11,9.56a2.05,2.05,0,0,0,.19.88h0a1.53,1.53,0,0,0,.49.49h0a1.78,1.78,0,0,0,.94.18h12a6.28,6.28,0,0,1,2,.3h0C89.63,52.38,89.88,52.36,90,52.53Z"/><path class="cls-27" d="M37.24,39.94l.24-.86c.11-.06.05-.41.32-.18a.55.55,0,0,1,.06.22,16.79,16.79,0,0,0-.33,4.36q0,10.35,0,20.71A6.44,6.44,0,0,0,38,66.87a10,10,0,0,1,.72,1.38.37.37,0,0,1-.07.27c-.37.07-.34-.33-.54-.47h0c-.21-.22-.24-.55-.45-.77a4.73,4.73,0,0,1-.49-2c0-.28,0-.57-.09-.85q0-11.3,0-22.61A8.23,8.23,0,0,1,37.24,39.94Z"/><path class="cls-30" d="M42.86,34.68H43a1.22,1.22,0,0,1,.6,0q11.81,0,23.62,0a1.22,1.22,0,0,1,.6,0h0c.36.12.76,0,1.1.25h0c0,.15.53-.08.28.33a10,10,0,0,1-1.8-.22c-.3,0-.61-.06-.91-.06H44.3a6.62,6.62,0,0,0-5.23,2.2,9,9,0,0,0-.88,1.24c-.11.18-.17.43-.46.42h0a.3.3,0,0,1,0-.37,6.52,6.52,0,0,1,4.15-3.54A5.64,5.64,0,0,1,42.86,34.68Z"/><path class="cls-30" d="M37.24,39.94c-.28,8.23-.05,16.46-.12,24.69a1.44,1.44,0,0,1,.05.65l-.05.08c-.2-.18-.12-.42-.12-.63Q37,53,37,41.16A2.87,2.87,0,0,1,37.24,39.94Z"/><path class="cls-30" d="M67.8,34.68H43c.18-.2.42-.12.64-.12H67.17C67.38,34.56,67.62,34.48,67.8,34.68Z"/><path class="cls-30" d="M74,51.31a1,1,0,0,1-.24-.84c0-2.24,0-4.48,0-6.71a12.86,12.86,0,0,0-.87-5.53c.54.4.48,1.08.72,1.62.06.14.09.3.14.46.24,3.38.06,6.77.12,10.16A8.09,8.09,0,0,0,74,51.31Z"/><path class="cls-30" d="M69.26,35.17l-.36-.24a2.06,2.06,0,0,1,1.4.51c.82.56,1.77,1,2.14,2.05l-.36-.24c-.25.08-.38-.11-.51-.24a6,6,0,0,0-2-1.46C69.43,35.48,69.22,35.42,69.26,35.17Z"/><path class="cls-30" d="M38.09,68.05c.25.09.31.35.49.49s.32.2.45.35.36.34.29.63c-.52-.06-.54-.7-1-.86Z"/><path class="cls-30" d="M37.24,65.36a4.77,4.77,0,0,0,.49,2s0,.05,0,.08,0,0,0,0a2.93,2.93,0,0,1-.61-2.08h0S37.2,65.31,37.24,65.36Z"/><path class="cls-30" d="M42.86,34.68a1.86,1.86,0,0,1-1,.25C42.15,34.61,42.52,34.7,42.86,34.68Z"/><path class="cls-30" d="M68.9,34.93a4.09,4.09,0,0,1-1.1-.25C68.18,34.71,68.59,34.57,68.9,34.93Z"/><path class="cls-30" d="M37.73,67.44v-.12a1.33,1.33,0,0,1,.36.73A.58.58,0,0,1,37.73,67.44Z"/><path class="cls-30" d="M72.93,38.23a.76.76,0,0,1-.36-.61A.76.76,0,0,1,72.93,38.23Z"/><path class="cls-30" d="M37.73,38.47v.37l-.25.24A.69.69,0,0,1,37.73,38.47Z"/><path class="cls-27" d="M72,76.37h-.36c-.61,0-1.06-.42-1.59-.62-.35-.37-.71-.72-1-1.11a6.14,6.14,0,0,1-.89-2,1.4,1.4,0,0,0-1.61-1.17c-7.14,0-14.28,0-21.43,0a7.84,7.84,0,0,1-3.89-.71c-.13-.1-.25-.2,0-.31a18.65,18.65,0,0,0,2.67.57c.34,0,.69.06,1,.06H66.46a1.76,1.76,0,0,1,2.05,1.57.84.84,0,0,0,0,.17,4.28,4.28,0,0,0,2.74,3.12C71.53,76,71.89,76,72,76.37Z"/><path class="cls-30" d="M92.37,73.31a136.5,136.5,0,0,0,0-18.09,2.89,2.89,0,0,1,.36,1.57q0,7.49,0,15A2.33,2.33,0,0,1,92.37,73.31Z"/><path class="cls-30" d="M89.43,52.28c-4.66-.52-9.34-.11-14-.24-.32,0-.66.05-.9-.24a7.4,7.4,0,0,0,1.82.12c3.82,0,7.65,0,11.47,0A2.55,2.55,0,0,1,89.43,52.28Z"/><path class="cls-30" d="M91.76,54l-1.47-1.35A2.57,2.57,0,0,1,91.76,54Z"/><path class="cls-30" d="M74.52,51.8a.52.52,0,0,1-.49-.49A1.22,1.22,0,0,1,74.52,51.8Z"/><path class="cls-30" d="M90,52.53a1.17,1.17,0,0,1-.61-.25C89.67,52.29,89.92,52.24,90,52.53Z"/><path class="cls-30" d="M92.12,73.8c.09-.16.17-.33.25-.49C92.35,73.5,92.45,73.76,92.12,73.8Z"/><path class="cls-30" d="M92.24,54.85a.68.68,0,0,1-.24-.49A.43.43,0,0,1,92.24,54.85Z"/><path class="cls-31" d="M72,76.37a6.71,6.71,0,0,1-2.31-1.27,5.35,5.35,0,0,1-1.33-2.49c-.27-1-.68-1.38-1.75-1.38H44.82A10,10,0,0,1,41,70.5a1,1,0,0,1-1-.49h-.12a1.14,1.14,0,0,1-.35-.34c-.17-.28-.45-.48-.63-.76a.78.78,0,0,1-.37-.37V68.3c.33-.06.49.18.66.37a6.78,6.78,0,0,0,5.31,2.15H66.67a1.94,1.94,0,0,1,2,1.68,4.2,4.2,0,0,0,4.46,3.55c4.78.07,9.57,0,14.36,0a6.75,6.75,0,0,0,2.53-.6.22.22,0,0,1,.26.16,4.42,4.42,0,0,1-2.73.85c-4.88,0-9.75,0-14.63,0-.18-.15-.43,0-.61-.12Z"/><path class="cls-30" d="M40.05,70a2.74,2.74,0,0,0,1,.49l.12.24C40.75,70.55,40.18,70.6,40.05,70Z"/><path class="cls-27" d="M39,68.91a2.54,2.54,0,0,1,.73.73.16.16,0,0,1-.24,0l-.12-.12C39.23,69.29,38.94,69.19,39,68.91Z"/><path class="cls-30" d="M39.44,69.64h.24l.25.37A.58.58,0,0,1,39.44,69.64Z"/><path class="cls-32" d="M45.18,98c.07.17.27.28.25.49a4.71,4.71,0,0,1,1,3.09c0,7.76.07,15.52,0,23.28a6.25,6.25,0,0,1-3.18,5.44,7.08,7.08,0,0,1-3.84,1q-11,0-22.06,0a6.89,6.89,0,0,1-4.74-1.63,7.4,7.4,0,0,1-1.77-2.45,5.55,5.55,0,0,1-.44-1.49c0-.25-.09-.51.1-.73a.19.19,0,0,1,.21,0,1.62,1.62,0,0,1,.23.68,6.08,6.08,0,0,0,4.89,4.93,3.5,3.5,0,0,0,.79.05H40a6,6,0,0,0,5.59-4.23,6.42,6.42,0,0,0,.26-1.8c0-7.39,0-14.79,0-22.18A7.26,7.26,0,0,0,44.64,98a.34.34,0,0,1,0-.2C44.94,97.55,45.05,97.81,45.18,98Z"/><path class="cls-33" d="M10.84,127.09c.38.5.6,1.09,1,1.59a6,6,0,0,0,4.89,2.43c7.76,0,15.52.06,23.27,0a6.26,6.26,0,0,0,6.18-5.42,13.16,13.16,0,0,0,.1-1.88c0-6.55,0-13.11,0-19.67,0-1.93.1-3.86-.86-5.64.53.14.6.65.71,1.05a11,11,0,0,1,.4,2.87c0,7.33,0,14.66,0,22a6.58,6.58,0,0,1-3.33,6,1.11,1.11,0,0,0-.21.22,10.44,10.44,0,0,1-3,.75c-.51.05-1,0-1.52,0-6.73,0-13.46,0-20.19,0a10.35,10.35,0,0,1-3.71-.42,9.31,9.31,0,0,1-1.42-.69h0c-.23-.14-.38-.35-.61-.49a3,3,0,0,1-.74-.73c-.1-.17-.25-.32-.36-.49l-.13-.12c-.14-.19-.2-.43-.36-.61s-.12-.23-.12-.37A.27.27,0,0,1,10.84,127.09Z"/><path class="cls-27" d="M13.16,130.27a3.21,3.21,0,0,1,.89.39,6.92,6.92,0,0,0,3.83.6,5,5,0,0,1,.55,0c6.63,0,13.27,0,19.9,0a18.64,18.64,0,0,0,2.89-.13,7,7,0,0,0,1.2-.4c.18-.07.34-.23.56-.1v.12l-1.34.49c-8.14.55-16.3.11-24.44.23a6.88,6.88,0,0,1-3.57-.85C13.46,130.53,13.24,130.49,13.16,130.27Z"/><path class="cls-34" d="M13.28,96.17a6.64,6.64,0,0,1,3.41-1.11c3.83-.25,7.67,0,11.5-.11a1.35,1.35,0,0,0,.66.06c3.38,0,6.75,0,10.13,0a5.49,5.49,0,0,1,2.3.35c-.17.29-.46.24-.71.2a31.58,31.58,0,0,0-4.12-.2c-5.4,0-10.79,0-16.19,0a23.55,23.55,0,0,0-4.66.3,6.16,6.16,0,0,0-3,1.6,4.32,4.32,0,0,1-.81.73c-.52,0-.21-.27-.1-.39A7.92,7.92,0,0,1,13.28,96.17Z"/><path class="cls-35" d="M13.28,96.17l-1.35,1.29c-.16.15-.36.28-.36.54a.75.75,0,0,1-.18.45,3.31,3.31,0,0,0-.55,1.19l-.06.16a4.74,4.74,0,0,0-.23.84c-.07.28,0,.58-.07.86a1.42,1.42,0,0,1-.05.22,6.29,6.29,0,0,0,0,1v21a2.23,2.23,0,0,1-.09,1,.15.15,0,0,1-.21.07,1.11,1.11,0,0,1,0-.6q0-11,0-21.9a1.11,1.11,0,0,1,0-.6,6.74,6.74,0,0,1,2.9-5.4A1.33,1.33,0,0,1,13.28,96.17Z"/><path class="cls-28" d="M10.1,101.67v23.1c-.2-.18-.12-.42-.12-.63V102.3C10,102.09,9.9,101.85,10.1,101.67Z"/><path class="cls-33" d="M41.27,95.43a6.7,6.7,0,0,0-2.43-.35c-3.32,0-6.63,0-10,0-.23,0-.49.1-.7-.11,3.7,0,7.39,0,11.08,0a5.62,5.62,0,0,1,2.86.6l-.06,0a1.06,1.06,0,0,1-.74-.11Z"/><path class="cls-35" d="M10.84,127.09v.37l-.13-.12c-.1-.2-.13-.42-.24-.61-.08-.37-.16-.74-.25-1.1a1.39,1.39,0,0,1,0-.73c.17-.07.2,0,.21.17s-.06.46.07.68A10.21,10.21,0,0,0,10.84,127.09Z"/><path class="cls-32" d="M44.09,96.78a1.26,1.26,0,0,1,.48.49c.19.12.29.27.13.49h0c-.46,0-.64-.37-.82-.72a.35.35,0,0,1,.06-.26A.1.1,0,0,1,44.09,96.78Z"/><path class="cls-33" d="M44.09,96.78H44a.93.93,0,0,1-.79-.42.36.36,0,0,1,0-.25l.06-.06C43.59,96.2,44,96.29,44.09,96.78Z"/><path class="cls-33" d="M42.13,95.56a1.91,1.91,0,0,1,1.1.49h0a.48.48,0,0,1-.34.13.88.88,0,0,1-.58-.25c-.09-.11-.24-.19-.18-.37Z"/><path class="cls-33" d="M44.7,97.76a.92.92,0,0,0-.13-.49.69.69,0,0,1,.61.73C45,97.93,44.91,97.74,44.7,97.76Z"/><path class="cls-27" d="M11.81,129.05a2.71,2.71,0,0,1,.74.73A1,1,0,0,1,11.81,129.05Z"/><path class="cls-27" d="M12.55,129.78c.31,0,.46.26.61.49C12.85,130.24,12.7,130,12.55,129.78Z"/><path class="cls-27" d="M11,127.83a.76.76,0,0,1,.36.61A.76.76,0,0,1,11,127.83Z"/><path class="cls-28" d="M10.22,124.89v.74c-.23-.26-.07-.57-.12-.86h.12s0,.06,0,.08S10.23,124.89,10.22,124.89Z"/><path class="cls-27" d="M10.47,126.73a.71.71,0,0,1,.24.61A.71.71,0,0,1,10.47,126.73Z"/><path class="cls-27" d="M11.45,128.56a.58.58,0,0,1,.36.49A.58.58,0,0,1,11.45,128.56Z"/><path class="cls-28" d="M2.52,20A3.94,3.94,0,0,1,1.19,17c-.29-4.72-.1-9.44-.11-14.16a6.72,6.72,0,0,1,.85-3.86A4.73,4.73,0,0,1,5.18-3.2a27.38,27.38,0,0,1,4.43-.26c2.79,0,5.58,0,8.37,0a23.58,23.58,0,0,1,4.12.26A4.7,4.7,0,0,1,26,1.08c.3,4.77.08,9.56.13,14.34a8.5,8.5,0,0,1-.85,4.11h0c-.69.51-1.16,1.28-2,1.59a2.17,2.17,0,0,1-.92.24.15.15,0,0,1,0-.16c.33-.29.83-.29,1.12-.66a1.83,1.83,0,0,1,.54-.38,1.41,1.41,0,0,0,.69-.63l.09-.14a1.73,1.73,0,0,0,.49-1.2,4.42,4.42,0,0,0,.33-1.72c0-4.85,0-9.7,0-14.55a4.48,4.48,0,0,0-2.2-4.15,5.59,5.59,0,0,0-2.82-.67c-4.65,0-9.29-.05-13.93,0A5.11,5.11,0,0,0,3-1.61,4.4,4.4,0,0,0,1.61,1.72c0,5,0,9.9,0,14.85,0,.35.14.68.12,1a1.56,1.56,0,0,0,.07.8.64.64,0,0,1,.08.14,1.59,1.59,0,0,0,.19.42.61.61,0,0,1,.07.14,1.29,1.29,0,0,0,.33.5.53.53,0,0,1,.13.2A.25.25,0,0,1,2.52,20Z"/><path class="cls-27" d="M22.33,21.24v.12a.81.81,0,0,1-.61.23c-.76-.05-1.5.14-2.25.14-3.95,0-7.89,0-11.84,0a12.61,12.61,0,0,1-3.06-.36A3.54,3.54,0,0,1,2.52,20v-.25c.24-.08.36.12.52.23a7.62,7.62,0,0,0,1.47.9,2,2,0,0,0,.86.23l.2,0c3.76,0,7.52,0,11.28,0a46.54,46.54,0,0,0,4.87,0l.21-.05A.43.43,0,0,1,22.33,21.24Z"/><path class="cls-36" d="M91.14,30.16a5.66,5.66,0,0,1-2.47,1.05c-.55.05-1.08.18-1.63.18H73.93A7.64,7.64,0,0,1,71,30.93a4.35,4.35,0,0,1-2.86-3.62A.71.71,0,0,0,68,27.1a1,1,0,0,1-.05-.53Q68,19,68,11.38a1,1,0,0,1,.05-.53h0a8,8,0,0,1,.25-1.1h0c.11-.2.14-.42.24-.61h0c.16-.19.22-.43.37-.62h0c.36-.32.7-.67,1.09-1a5.37,5.37,0,0,1,3.33-1c4.68,0,9.36,0,14,0,2.11,0,3.92.7,4.88,2.78a5.83,5.83,0,0,1,.48,2.43q0,7.17,0,14.35A5.4,5.4,0,0,1,91.14,30.16Z"/><path class="cls-25" d="M68,10.85V27.1c-.2-.17-.12-.41-.12-.63v-15C67.92,11.27,67.84,11,68,10.85Z"/><path class="cls-25" d="M68.29,9.75a2.64,2.64,0,0,1-.25,1.1A1.57,1.57,0,0,1,68.29,9.75Z"/><path class="cls-25" d="M68.9,8.52a.77.77,0,0,1-.37.62A.75.75,0,0,1,68.9,8.52Z"/><path class="cls-25" d="M68.53,9.14a.72.72,0,0,1-.24.61A.69.69,0,0,1,68.53,9.14Z"/><path class="cls-37" d="M88.21,98.74a5.48,5.48,0,0,1,1.59,2,8.25,8.25,0,0,1,.3,2.75q0,4.43,0,8.83a7.45,7.45,0,0,1-.54,3.33h0a4.06,4.06,0,0,1-1.1,1.23h0a6,6,0,0,1-3.62.78c-3,0-5.94,0-8.92,0a6.49,6.49,0,0,1-3.48-.66h0a4.08,4.08,0,0,1-1.72-3.5c-.08-3.31,0-6.62,0-9.94,0-.58,0-1.17.08-1.76a3.76,3.76,0,0,1,1.57-2.89h0a7.14,7.14,0,0,1,.73-.37h0a9.84,9.84,0,0,1,3.41-.42c2.66,0,5.32,0,8,0A7,7,0,0,1,88.21,98.74Z"/><path class="cls-38" d="M72.32,98.86c-.23.38-.62.63-.85,1a4.37,4.37,0,0,0-.64,2.06c-.2,3.25,0,6.5-.09,9.75a21.78,21.78,0,0,0,.13,2.55,2.93,2.93,0,0,0,1,2.08,6.89,6.89,0,0,1,.57.63,3,3,0,0,1-1.69-2.36c-.32-4.21-.07-8.43-.13-12.65a9.42,9.42,0,0,1,.23-1.49c.35-.25.41-.69.69-1S71.94,98.91,72.32,98.86Z"/><path class="cls-38" d="M88.21,98.74c-3.35-1.06-6.81-.47-10.22-.6a21,21,0,0,0-4.94.35A3.45,3.45,0,0,1,75.14,98c3.58,0,7.17,0,10.75,0A3.25,3.25,0,0,1,88.21,98.74Z"/><path class="cls-38" d="M89.56,115.6c.7-2.5.45-5.06.48-7.6,0-2.12.07-4.24-.12-6.35,0-.32-.08-.64-.12-1a2.89,2.89,0,0,1,.36,1.57c0,3.72,0,7.44,0,11.16A3.47,3.47,0,0,1,89.56,115.6Z"/><path class="cls-38" d="M88.46,116.83l1.1-1.23V116C89.13,116.18,89,116.72,88.46,116.83Z"/><path class="cls-38" d="M73.05,98.49a1,1,0,0,1-.73.37A.75.75,0,0,1,73.05,98.49Z"/><path class="cls-38" d="M72.44,117a9.86,9.86,0,0,0,4,.59c2.43,0,4.87,0,7.31,0a9.8,9.8,0,0,0,4.72-.72,3.33,3.33,0,0,1-2.47.83c-3.74,0-7.49,0-11.23,0A3.2,3.2,0,0,1,72.44,117Z"/><path class="cls-32" d="M55,148.36a4.38,4.38,0,0,1-3.54,1.23c-2.43,0-4.85,0-7.27,0a5.57,5.57,0,0,1-1.73-.25,2.91,2.91,0,0,1-2-2.47,14.19,14.19,0,0,1-.14-2.61c0-1.48,0-3,0-4.45a7.68,7.68,0,0,1,.86-4.39.74.74,0,0,1,.37-.37,4.05,4.05,0,0,1,2.36-.67H52a4.29,4.29,0,0,1,2.36.67,4.44,4.44,0,0,1,1.23,3.55q0,3.3,0,6.59A6.54,6.54,0,0,1,55,148.36Z"/><path class="cls-25" d="M54.35,135a8.71,8.71,0,0,0-4-.62c-1.62,0-3.25,0-4.88,0a8.31,8.31,0,0,0-4,.62,2.36,2.36,0,0,1,1.92-.72c3,0,6.07,0,9.1,0A2.4,2.4,0,0,1,54.35,135Z"/><path class="cls-39" d="M17.07,41.53a2.26,2.26,0,0,1-1.73-2.18,19.08,19.08,0,0,1,0-3.38,2.2,2.2,0,0,1,1.75-2.11,12.08,12.08,0,0,1,4.28.06,2,2,0,0,1,1.31.88.25.25,0,0,1,0,.27c-.09.11-.19.18-.33.09a.44.44,0,0,1-.12-.15,1.64,1.64,0,0,0-1.45-.74,20.12,20.12,0,0,0-3.2,0,2.23,2.23,0,0,0-1.6.82,1.44,1.44,0,0,0-.34,1,16.86,16.86,0,0,0,.08,3.69,2.22,2.22,0,0,0,.24.62,2.1,2.1,0,0,0,.56.59,2.31,2.31,0,0,0,.72.31c.14,0,.36,0,.24.3A.67.67,0,0,1,17.07,41.53Z"/><path class="cls-35" d="M17.56,41.53c-.35-.21-.82-.13-1.1-.49.22-.19.44-.06.67,0a10.26,10.26,0,0,0,4,.05,1.41,1.41,0,0,0,1-.54,1,1,0,0,1,.1-.17,5.52,5.52,0,0,0,.5-1.41,11.42,11.42,0,0,0,0-2.48,3.74,3.74,0,0,1-.26-1.32l.24-.12c.47.47.38,1.08.43,1.66a7,7,0,0,1,0,2,2.61,2.61,0,0,1-.55,1.92l-.12.25a3.08,3.08,0,0,1-1.89.68A13.1,13.1,0,0,1,17.56,41.53Z"/><path class="cls-26" d="M17.56,41.53a27.22,27.22,0,0,0,3.61-.11,9.44,9.44,0,0,0,1.28-.5,1.42,1.42,0,0,1-1.15.7,13.07,13.07,0,0,1-4.14,0s-.06-.06-.09-.08Z"/><path class="cls-26" d="M22.57,40.67a4.49,4.49,0,0,0,.49-1.83q.06-.09.12,0A2.9,2.9,0,0,1,23,40.35C22.86,40.53,22.78,40.66,22.57,40.67Z"/><path class="cls-26" d="M23.06,36.64a4.85,4.85,0,0,0-.37-1.59V34.8a2.19,2.19,0,0,1,.49,1.84S23.1,36.69,23.06,36.64Z"/><path class="cls-39" d="M23.06,36.64h.12v.12a6.44,6.44,0,0,1,0,2v.12h-.12Z"/><path class="cls-26" d="M23.18,38.72v-2A3.28,3.28,0,0,1,23.18,38.72Z"/><path class="cls-34" d="M90.29,75.63l-.12-.12a.28.28,0,0,1,.15-.3,4.32,4.32,0,0,0,1.73-3.67c.06-4.86,0-9.72,0-14.58a3.75,3.75,0,0,0-.81-2.57,1.09,1.09,0,0,1-.13-.17,4.08,4.08,0,0,0-3.64-1.63c-4.09,0-8.18,0-12.28,0a1.8,1.8,0,0,1-1.85-1.21,2.54,2.54,0,0,1-.09-.91c0-2.77,0-5.54,0-8.31a7.59,7.59,0,0,0-1-3.91,5.94,5.94,0,0,0-4.44-2.9A11.13,11.13,0,0,0,66,35.22H44.3a6.42,6.42,0,0,0-5,2.06,6,6,0,0,0-1.66,4.21c0,7.64,0,15.27,0,22.91a7.88,7.88,0,0,0,.3,1.8c.06.28.24.58,0,.88a3.09,3.09,0,0,1-.6-2q0-12.09,0-24.17a12.67,12.67,0,0,1,.35-2.09,11.28,11.28,0,0,1,1.57-2.15,6.53,6.53,0,0,1,3.84-1.78,20.71,20.71,0,0,1,2.61-.1q8.43,0,16.85,0a28.57,28.57,0,0,1,6.66.36,10.31,10.31,0,0,1,2.82,2.08c.25.62.69,1.12,1,1.75a8.83,8.83,0,0,1,.52,3.74c0,1.67,0,3.34,0,5A24.85,24.85,0,0,0,73.66,51a1.44,1.44,0,0,0,1,1.16,8.9,8.9,0,0,0,1.45.14H86.64a11,11,0,0,1,2.29.12,4.33,4.33,0,0,1,3.43,4.1c0,4.64,0,9.28,0,13.92A7.82,7.82,0,0,1,92,73.64,4,4,0,0,1,90.29,75.63Z"/><path class="cls-27" d="M72.32,76.37c.21,0,.44-.09.61.12C72.73,76.46,72.49,76.57,72.32,76.37Z"/><path class="cls-40" d="M92,55.35c0-.13-.07-.27-.69-.7a.59.59,0,0,0,.07.29,3,3,0,0,1,.49,1.61c0,5.11,0,10.23,0,15.34a3.58,3.58,0,0,1-.59,2,4.22,4.22,0,0,1-3.74,1.91c-4.75,0-9.49,0-14.24,0a4.08,4.08,0,0,1-4.23-3c-.08-.29-.17-.59-.26-.88a1.84,1.84,0,0,0-1.31-1.25,4.48,4.48,0,0,0-1.21-.12H44.43a6.27,6.27,0,0,1-5-2,5.49,5.49,0,0,1-1.56-3.73q0-11.72,0-23.41a5.9,5.9,0,0,1,6-5.91c3.83,0,7.67,0,29.16,9.24,0,1.75,0,3.5,0,5.25a5.81,5.81,0,0,0,.17,1.45,1.67,1.67,0,0,0,1.29,1.26,6.91,6.91,0,0,0,1.51.16H87.83c.15,0,.29,0,.44,0l-.77-.43c-4.1,0-8.2,0-12.3,0a1.59,1.59,0,0,1-1.78-1.76c0-1.92,0-3.83,0-5.75l-.1,0,.1,0c0-.83,0-1.67,0-2.5a9.75,9.75,0,0,0-.16-1.81,6.28,6.28,0,0,0-6.55-5.52c-7.35-.06-14.7,0-22.06,0a7.1,7.1,0,0,0-4.43,1.2,6.66,6.66,0,0,0-2.13,2.52,7.73,7.73,0,0,0-.62,3.32c0,6.17,0,12.34,0,18.52A21.67,21.67,0,0,0,38,67.08c.05.48.53.75.61,1.22a2.25,2.25,0,0,1,.37.31A7.16,7.16,0,0,0,44.77,71c5.92,0,11.85,0,17.77,0,1.34,0,2.69,0,4,0s1.66.41,2,1.58A4.31,4.31,0,0,0,73,76.21c4.89.1,9.77,0,14.66,0a4.5,4.5,0,0,0,2.53-.72,6.76,6.76,0,0,0,.85-.67,5.18,5.18,0,0,0,1.22-3.42c0-4.64,0-9.28,0-13.91A9.62,9.62,0,0,0,92,55.35ZM66.7,35.45a6.94,6.94,0,0,1,2.68.5A5.79,5.79,0,0,1,72.1,38.4,6.73,6.73,0,0,1,73,42.14c0,.83,0,1.66,0,2.49C59.24,35.47,63,35.48,66.7,35.45Z"/><path class="cls-40" d="M91,54.18c-.32-.1-.49-.47-.79-.65a4.76,4.76,0,0,0-1.92-.68c1.6.9,2.5,1.45,3,1.8C91.27,54.46,91.27,54.27,91,54.18Z"/><path class="cls-30" d="M37.24,65.36h-.12v-.73C37.34,64.85,37.2,65.12,37.24,65.36Z"/><path class="cls-41" d="M44,97a2.71,2.71,0,0,0,.73.74A7.71,7.71,0,0,1,46,100.61a4.53,4.53,0,0,1,.08.73v23.75a6.27,6.27,0,0,1-4.8,5.68,8.78,8.78,0,0,1-1.45.12c-7.74,0-15.47,0-23.21,0a5.68,5.68,0,0,1-5.1-3.1,7.23,7.23,0,0,1-.89-2.75,1.08,1.08,0,0,1-.17-.76c0-7.38,0-14.75,0-22.13a3.43,3.43,0,0,1,.42-2c.34,0,.25.32.23.51s-.07.55-.09.83a1.55,1.55,0,0,1-.05.23,3,3,0,0,0,0,.85v21.41a2.76,2.76,0,0,0,.06.91,6.66,6.66,0,0,0,1.91,4.12,5.38,5.38,0,0,0,3.57,1.53c7.57.28,15.15.06,22.72.1a6.59,6.59,0,0,0,3.85-1,5.42,5.42,0,0,0,2.61-4.44c.31-7.56.08-15.11.12-22.67a6.61,6.61,0,0,0-1-3.9,4.28,4.28,0,0,0-.5-.61,3,3,0,0,1-.33-.38c-.09-.24-.41-.39-.32-.71C43.78,96.78,43.87,96.89,44,97Z"/><path class="cls-42" d="M11,100.08a4.7,4.7,0,0,0-.36,2.06q0,11.44,0,22.88h-.12a.73.73,0,0,1-.12-.34q0-11.36,0-22.7a1.46,1.46,0,0,1,0-.36.78.78,0,0,0,0-.22c.09-.26,0-.55.1-.82s.1-.59.2-.87h0c.18-.46.41-.89.61-1.34l.25-.37A15.16,15.16,0,0,0,13,96.73a6.86,6.86,0,0,1,4.35-1.42c5.44-.23,10.88-.07,16.33-.12,2.55,0,5.09,0,7.63.24h0a10.15,10.15,0,0,1,1.1.37.69.69,0,0,0,.49.25c.11.1.27.12.37.24l.73.49V97l-.36-.12a3.93,3.93,0,0,1-1.27-.57,6.34,6.34,0,0,0-2.53-.6c-6.69-.25-13.38-.11-20.07-.09a16,16,0,0,0-4.3.32,6,6,0,0,0-4.1,3.6C11.25,99.76,11.21,100,11,100.08Z"/><path class="cls-34" d="M10.47,124.77v1c-.28-.23,0-.63-.25-.86v-.12q0-11.23,0-22.47c0-.25-.1-.53.12-.75a1.31,1.31,0,0,1,.05.65q0,10.93,0,21.85A1.47,1.47,0,0,0,10.47,124.77Z"/><path class="cls-32" d="M10.47,124.77c-.22-.22-.12-.5-.12-.75v-22.6s.08,0,.12,0Z"/><path class="cls-34" d="M11.32,98.37a2.83,2.83,0,0,1-.61,1.34A2.19,2.19,0,0,1,11.32,98.37Z"/><path class="cls-34" d="M10.71,99.71a1.5,1.5,0,0,1-.12.86l-.06,0-.06,0A1.26,1.26,0,0,1,10.71,99.71Z"/><path class="cls-34" d="M10.47,101.42h-.12c0-.28-.11-.59.12-.85h0a1,1,0,0,1,0,.73Z"/><path class="cls-34" d="M42.37,95.8a2.44,2.44,0,0,1-1.1-.37l.86.13Z"/><path class="cls-34" d="M43.23,96.29a.37.37,0,0,1-.37-.24h.37Z"/><path class="cls-43" d="M4.48,21a5.88,5.88,0,0,1-2-1.22l-.12-.12A2.37,2.37,0,0,1,2,19H2a2.23,2.23,0,0,1-.24-.49h0c-.17-.22-.14-.5-.24-.74-.28-5.3-.07-10.61-.12-15.92A4.67,4.67,0,0,1,5.8-3c.65-.06,1.29-.09,1.94-.1,4.24,0,8.47,0,12.71,0a5.55,5.55,0,0,1,3.44,1A4.54,4.54,0,0,1,25.63.74a10.14,10.14,0,0,1,.12,2.06V14.53a10.5,10.5,0,0,1-.37,3.9,4,4,0,0,1-.61,1.1,3.16,3.16,0,0,1-.73.73l-.49.37a5,5,0,0,1-1.59.61h0c-.83.07-1.65.08-2.48.07q-5.89,0-11.79,0a23,23,0,0,1-2.35-.07h0A3.55,3.55,0,0,1,4.48,21Z"/><path class="cls-33" d="M22,21.24a11.33,11.33,0,0,1,1.59-.61,2.19,2.19,0,0,1-1.22.61Z"/><path class="cls-33" d="M24.77,19.53a4.55,4.55,0,0,1,.61-1.1A1.4,1.4,0,0,1,24.77,19.53Z"/><path class="cls-33" d="M24,20.26a2.54,2.54,0,0,1,.73-.73A1,1,0,0,1,24,20.26Z"/><path class="cls-27" d="M1.55,17.81a1.23,1.23,0,0,1,.24.74C1.45,18.39,1.57,18.08,1.55,17.81Z"/><path class="cls-27" d="M2,19a1.14,1.14,0,0,1,.37.61A.6.6,0,0,1,2,19Z"/><path class="cls-27" d="M1.79,18.55A.62.62,0,0,1,2,19,.44.44,0,0,1,1.79,18.55Z"/><path class="cls-33" d="M5.34,21.24H22a5.76,5.76,0,0,1-2,.21,10.67,10.67,0,0,0-1.26-.09c-3.48,0-6.95,0-10.43,0a10.79,10.79,0,0,1-2.41,0C5.67,21.33,5.47,21.41,5.34,21.24Z"/><path class="cls-33" d="M4.48,21a1.9,1.9,0,0,1,.86.25C5,21.24,4.71,21.27,4.48,21Z"/><path class="cls-44" d="M68.29,19c0-2.47,0-4.93,0-7.4A4.35,4.35,0,0,1,71,7.22a5.22,5.22,0,0,1,2-.4c4.83,0,9.66,0,14.48,0a4.63,4.63,0,0,1,5,4.74c0,5,0,10,0,15A4.47,4.47,0,0,1,88.38,31c-.73.07-1.45.09-2.18.09-4.28,0-8.55,0-12.83,0a6.13,6.13,0,0,1-2.43-.45,4.2,4.2,0,0,1-2.64-4.15C68.25,24,68.29,21.48,68.29,19Z"/><path class="cls-45" d="M71.1,107.89c0-1.94,0-3.87,0-5.81a3.39,3.39,0,0,1,3.56-3.57c3.83-.06,7.66,0,11.49,0a3.46,3.46,0,0,1,3.54,3.61c0,3.81,0,7.62,0,11.43a3.33,3.33,0,0,1-2.12,3.37,3.38,3.38,0,0,1-1.36.28c-3.87,0-7.74,0-11.61,0a3.33,3.33,0,0,1-3.48-3.5v-5.8Z"/><path class="cls-46" d="M55.33,137.61v8.8c-.15.18,0,.42-.12.61a5.49,5.49,0,0,1-.67,1.35,2.92,2.92,0,0,1-2.52.95c-2.77.05-5.54.06-8.3,0a2.78,2.78,0,0,1-3.06-2.72c-.27-2.33-.06-4.67-.11-7a16.7,16.7,0,0,1,.08-2.12,2.89,2.89,0,0,1,3.13-2.8q4.25-.09,8.49,0a2.84,2.84,0,0,1,3,2.3C55.35,137.18,55.18,137.42,55.33,137.61Z"/><path class="cls-32" d="M55.33,137.61c-.2-.18-.09-.41-.12-.62C55.41,137.17,55.3,137.4,55.33,137.61Z"/><path class="cls-43" d="M17.07,41.16,16.46,41a1.28,1.28,0,0,1-.49-.49,8.4,8.4,0,0,1,0-5.62c.46-.4.9-.84,1.59-.74a11.06,11.06,0,0,1,4.13.22.13.13,0,0,1,0,.18c-.19.13-.39,0-.59,0a11,11,0,0,0-3.62,0,1.51,1.51,0,0,0-1.27.91,1.49,1.49,0,0,0-.19.69c0,1.07,0,2.14,0,3.21a1.05,1.05,0,0,1,.05.19,1.6,1.6,0,0,0,.84,1.19c.15.1.42.09.38.39A.23.23,0,0,1,17.07,41.16Z"/><path class="cls-43" d="M22.45,35.17a4.31,4.31,0,0,1,.37,1.22,13.43,13.43,0,0,1,0,2.69c-.15.46-.1,1-.49,1.35a.35.35,0,0,1-.11-.28,9.45,9.45,0,0,0,.2-4,2,2,0,0,0-.47-1c-.13-.15-.3-.28-.24-.52h0c.44-.13.5.3.73.49Z"/><path class="cls-35" d="M16,34.93a11,11,0,0,0-.24,4.81c0,.28.28.5.24.81a1.62,1.62,0,0,1-.45-1.22,15.11,15.11,0,0,1,.1-3.74C15.67,35.35,15.68,35.06,16,34.93Z"/><path class="cls-43" d="M22.45,35.05c-.28-.11-.39-.48-.73-.49a1.88,1.88,0,0,0-1.25-.36c-1,0-1.94,0-2.91,0,.12-.15.29-.12.44-.12a18,18,0,0,1,3.37.13C21.84,34.32,22.31,34.49,22.45,35.05Z"/><path class="cls-47" d="M22.33,40.18v.37a2.69,2.69,0,0,1-1.76.7,14.12,14.12,0,0,1-3.25-.09c-.62-.33-1.28-.63-1.35-1.47.2,0,.28.13.38.24a1.93,1.93,0,0,0,1.8.93,12.33,12.33,0,0,0,2.78-.09,1.47,1.47,0,0,0,.76-.34l.21-.18A.44.44,0,0,1,22.33,40.18Z"/><path class="cls-43" d="M17.32,41.16c.84,0,1.7,0,2.54,0a4.27,4.27,0,0,0,2.47-.63,1.89,1.89,0,0,1-1.68.78,8.82,8.82,0,0,1-3.58-.17Z"/><path class="cls-43" d="M22.82,39.08V36.39A6.11,6.11,0,0,1,22.82,39.08Z"/><path class="cls-41" d="M91.27,54.24c.09.22.17.46.27.67A4.3,4.3,0,0,1,92,56.84c0,4.87-.06,9.74,0,14.61A4.33,4.33,0,0,1,87.43,76H73.5c-2.71,0-4.24-1.2-4.77-3.6a2.12,2.12,0,0,0-2.26-1.67c-7.41,0-14.82,0-22.24,0a6.41,6.41,0,0,1-6.47-5.24,2.54,2.54,0,0,1,0-.55V41.24a6.12,6.12,0,0,1,6-6c7.84,0,15.68,0,23.52,0A5.46,5.46,0,0,1,71,36.84a6.66,6.66,0,0,1,2.16,5.27q0,4.06,0,8.13a2.05,2.05,0,0,0,2.44,2.4c4,0,7.9,0,11.85,0A4.4,4.4,0,0,1,91,54.06,1.5,1.5,0,0,0,91.27,54.24Z"/><path class="cls-48" d="M10.84,101.55v-.13a.15.15,0,0,1,.2.07,2.27,2.27,0,0,1,.09,1v21a8.39,8.39,0,0,0,.15,2,3.7,3.7,0,0,0,.33,1.12,6,6,0,0,0,2.46,2.94,6.07,6.07,0,0,0,3.34.79q10.89.06,21.8,0a6.26,6.26,0,0,0,3.91-1.11A5.36,5.36,0,0,0,45.26,126l.18-.71a2.26,2.26,0,0,0,.06-.73V101.92a3,3,0,0,0,0-.67c-.22-.49-.22-1-.42-1.55a3.68,3.68,0,0,0-.67-1.36c-.11-.17-.33-.33-.16-.58a4.54,4.54,0,0,1,1.57,3.43c.31,7.59.08,15.19.12,22.78a6.55,6.55,0,0,1-1.65,4.82,5.53,5.53,0,0,1-3.74,1.84c-6,.3-12.09.06-18.13.13-1.49,0-3,0-4.47,0a8,8,0,0,1-4-.83A5.94,5.94,0,0,1,11,125.67c-.05-.26-.08-.52-.12-.78a1.09,1.09,0,0,1-.06-.59V102.14A1.08,1.08,0,0,1,10.84,101.55Z"/><path class="cls-49" d="M11.2,125.63a3,3,0,0,1-.24-1.35V101.42a4.72,4.72,0,0,1,.88-3,6.29,6.29,0,0,1,5.27-2.79c6.65-.24,13.31-.07,20-.09a15.53,15.53,0,0,1,4.35.36A4.43,4.43,0,0,1,44,97.51l.25.25c.28.63.83,1.12,1,1.83a.18.18,0,0,1-.21,0c-.49-.51-.77-1.17-1.27-1.69a5.38,5.38,0,0,0-3.93-1.66c-6.77-.26-13.54-.11-20.31-.1a15.85,15.85,0,0,0-3.94.31,4.4,4.4,0,0,0-1,.39c-.25.1-.54.11-.74.33l-.14.1a5.76,5.76,0,0,0-1.27,1.29,2.4,2.4,0,0,0-.6,1.12,5.44,5.44,0,0,0-.37,1.31,8.39,8.39,0,0,0-.14,2c0,6.94,0,13.88,0,20.81,0,.59.27,1.16,0,1.75Z"/><path class="cls-50" d="M44,97.51a7,7,0,0,0-4.79-1.73c-6.85-.23-13.71-.06-20.56-.07a9,9,0,0,0-4.39.77A6,6,0,0,0,11,101.42h-.12l.12-1.34a6.36,6.36,0,0,1,2.85-3.66,6,6,0,0,1,2.71-.84c1.05-.1,2.11-.12,3.16-.12,5.8,0,11.61-.07,17.41,0a16.33,16.33,0,0,1,4.29.33,6.41,6.41,0,0,1,2.22,1.1C43.68,97.13,44,97.23,44,97.51Z"/><path class="cls-50" d="M10.84,101.55v23.34c-.2-.18-.12-.42-.12-.63q0-11,0-22.08C10.72,102,10.64,101.73,10.84,101.55Z"/><path class="cls-32" d="M10.47,101.3v-.73h.12C10.55,100.81,10.69,101.09,10.47,101.3Z"/><path class="cls-41" d="M23.67,20.13a3.57,3.57,0,0,1-2.29.86c-4.84.28-9.68.07-14.52.11a4.82,4.82,0,0,1-4.49-2.16A5.47,5.47,0,0,1,1.69,16q-.06-6.87,0-13.75a4.91,4.91,0,0,1,1.5-3.89A4.38,4.38,0,0,1,5.65-2.7a31.54,31.54,0,0,1,3.22-.15c3.63,0,7.25,0,10.88,0a9.19,9.19,0,0,1,2.52.27A4.16,4.16,0,0,1,25.4,1.21a30,30,0,0,1,.1,3.28q0,5.78,0,11.55a5.77,5.77,0,0,1-.66,2.87,1.05,1.05,0,0,1-.44.49.28.28,0,0,1-.08-.3.46.46,0,0,1,.07-.16,1.45,1.45,0,0,0,.31-.62c0-.06.05-.12.08-.19a3.57,3.57,0,0,0,.31-1.48q0-7.26,0-14.51A5.6,5.6,0,0,0,24.83.46c-.2-.36-.36-.74-.53-1.12a1.39,1.39,0,0,0-.85-.86,3.17,3.17,0,0,1-.76-.43,5.93,5.93,0,0,0-2.62-.46c-4.36,0-8.72,0-13.08,0-.47,0-.92.16-1.39.13l-.19,0a3.19,3.19,0,0,0-1.67.67,1.3,1.3,0,0,1-.2.15A1.17,1.17,0,0,0,3.08-1c-.08.12-.18.22-.27.33a1.83,1.83,0,0,0-.34.84,4.45,4.45,0,0,0-.26,1.49c0,5,0,9.93,0,14.9a3.87,3.87,0,0,0,3.91,4c5,0,10,0,15,0a5.91,5.91,0,0,0,2.21-.63A.34.34,0,0,1,23.67,20.13Z"/><path class="cls-50" d="M24.4,19v.36l-.12.13a1.6,1.6,0,0,1-.49.48l-.12.12L23.43,20A1.18,1.18,0,0,1,24.4,19Z"/><path class="cls-41" d="M23.79,20a1.26,1.26,0,0,1,.49-.48A.5.5,0,0,1,23.79,20Z"/><path class="cls-49" d="M68.53,19c0-2.24,0-4.48,0-6.72a6.18,6.18,0,0,1,.57-3A3.82,3.82,0,0,1,72.3,7.2c4.89-.32,9.8-.11,14.71-.12A5.4,5.4,0,0,1,90.53,8a4,4,0,0,1,1.59,3c.28,4.84.08,9.68.1,14.52a6.15,6.15,0,0,1-.64,3.19,3.94,3.94,0,0,1-3.38,2.06c-4.7.29-9.4.09-14.1.11a8.19,8.19,0,0,1-3-.45,4.32,4.32,0,0,1-2.41-3.28c-.11-1.36-.11-2.72-.11-4.08Z"/><path class="cls-49" d="M71.34,107.86v-5.62a3.25,3.25,0,0,1,3.51-3.5c3.69,0,7.38,0,11.06,0,2.24,0,3.48,1.21,3.51,3.5,0,3.77,0,7.54,0,11.31a3.19,3.19,0,0,1-3.35,3.38c-3.83,0-7.66,0-11.49,0a3.17,3.17,0,0,1-3.25-3.29Z"/><path class="cls-51" d="M53.38,148.73a1.06,1.06,0,0,1-1,.36c-2.89,0-5.79.06-8.68,0C41.64,149,40.91,148,40.81,146c-.12-2.66-.05-5.33,0-8a3.51,3.51,0,0,1,.63-2.07,2.69,2.69,0,0,1,2.31-1c2.79,0,5.58,0,8.37,0a2.74,2.74,0,0,1,3,3q0,4.11,0,8.24a2.71,2.71,0,0,1-.94,2.28,1.19,1.19,0,0,1-.76.33c0-.2.1-.31.23-.39a2.39,2.39,0,0,0,1-2.21c.05-2.75,0-5.5,0-8.24a2.27,2.27,0,0,0-2.57-2.55c-2.72,0-5.45,0-8.17,0a2.55,2.55,0,0,0-2.39,1.2,2.91,2.91,0,0,0-.31,1.47q-.06,4,0,8a2.46,2.46,0,0,0,1.78,2.6,3.57,3.57,0,0,0,.79.07c2.79,0,5.57,0,8.36,0C52.55,148.69,53,148.4,53.38,148.73Z"/><path class="cls-52" d="M22.33,40.18l-.37.13a10.38,10.38,0,0,0,.32-3.55c0-1.1-.44-1.8-1.32-1.94a9.44,9.44,0,0,0-3.63.07,1.31,1.31,0,0,0-.86.65c-.1.12-.18.29-.39.25a.33.33,0,0,1,0-.37c.42-1,1.34-1,2.19-1.09a10.14,10.14,0,0,1,3.43.23C23.2,36.3,22.8,38.24,22.33,40.18Z"/><path class="cls-47" d="M16.09,35.42v.36a.3.3,0,0,1,.06.22c0,.94,0,1.89,0,2.83,0,.26.05.53-.17.74-.17-.14-.12-.33-.12-.51V36.27A1.27,1.27,0,0,1,16.09,35.42Z"/><path class="cls-52" d="M16,39.57v-3.1c0-.19-.06-.41.12-.57.19.18.16.41.17.63,0,1-.06,2.09.06,3.14a.36.36,0,0,1-.11.27L16,39.69Z"/><path class="cls-53" d="M16.34,35.54c.3-.82,1-.91,1.74-1a20.85,20.85,0,0,1,2.5,0,1.85,1.85,0,0,1,1.84,1.94,11,11,0,0,1-.07,2.86,2.24,2.24,0,0,1-.39.94l-.12.12a2.43,2.43,0,0,1-1.75.52,9.91,9.91,0,0,1-2.66-.1.17.17,0,0,1-.14-.17.64.64,0,0,1,.51-.17c.87,0,1.75,0,2.62,0A1.45,1.45,0,0,0,22,38.87c0-.77,0-1.55,0-2.32a1.45,1.45,0,0,0-.06-.62l-.1-.13a3.5,3.5,0,0,0-.63-.7,7.29,7.29,0,0,0-4,0,.92.92,0,0,0-.56.46.7.7,0,0,1-.22.26.18.18,0,0,1-.16,0A.21.21,0,0,1,16.34,35.54Z"/><path class="cls-54" d="M16.34,35.54v.24a12.1,12.1,0,0,1,0,2.17,3,3,0,0,0,.94,2.72,6.91,6.91,0,0,0,4.53-.24c-.31.66-1,.53-1.49.57a10,10,0,0,1-2.78-.07,1.69,1.69,0,0,1-1.36-1,30.25,30.25,0,0,1-.12-4v-.12Z"/><path class="cls-55" d="M55.38,35.54c3.83,0,7.66.05,11.49,0a6,6,0,0,1,6,5.17,25.72,25.72,0,0,1,.09,3.16c0,2,0,4,0,6a10.31,10.31,0,0,0,.16,1.57,1.43,1.43,0,0,0,1.25,1.31,8,8,0,0,0,1.39.18H87.81a3.82,3.82,0,0,1,4,4c0,4.93,0,9.86,0,14.78a3.79,3.79,0,0,1-4,4.08c-5,.09-9.9.06-14.84,0a3.84,3.84,0,0,1-3.82-3,10.22,10.22,0,0,0-.44-1.32c-.33-.81-1.12-.77-1.8-.91a2.67,2.67,0,0,0-.49,0H44.12A6.1,6.1,0,0,1,38,65.32a3.37,3.37,0,0,1,0-.55V41.25a5.94,5.94,0,0,1,4.24-5.49A6.44,6.44,0,0,1,44,35.54Z"/><path class="cls-56" d="M45.06,99.59h.12l.37,1.47a1.12,1.12,0,0,1,.06.6v23.12a1.12,1.12,0,0,1-.06.6,5.69,5.69,0,0,1-4.63,5,9,9,0,0,1-1.81.15q-10.8,0-21.62,0a6.07,6.07,0,0,1-4.87-1.93,5.83,5.83,0,0,1-1.17-2c-.07-.1-.09-.2,0-.27a.24.24,0,0,1,.21.07c.26.4.43.86.7,1.27a5.21,5.21,0,0,0,4.6,2.42c7.54,0,15.09,0,22.64,0a6.43,6.43,0,0,0,3-.83A2.73,2.73,0,0,0,44.1,128a2.51,2.51,0,0,1,.32-.52,5.25,5.25,0,0,0,.84-3.13V102.16a8.81,8.81,0,0,0-.24-2C45,100,44.9,99.77,45.06,99.59Z"/><path class="cls-49" d="M45.55,125.38V101.06c.2.18.12.42.12.63v23.06C45.67,125,45.75,125.2,45.55,125.38Z"/><path class="cls-49" d="M11.45,126.36v.24a1.34,1.34,0,0,1-.25-1h0C11.6,125.77,11.56,126.05,11.45,126.36Z"/><path class="cls-57" d="M45.06,99.59a16.33,16.33,0,0,1,.37,4.83q0,10.08,0,20.16a4.79,4.79,0,0,1-1,3.12.47.47,0,0,1-.13-.25,12,12,0,0,1,.62-1.77,1.42,1.42,0,0,0,0-.79c0-.35,0-.7,0-1V102.59c0-.34,0-.69,0-1a1.42,1.42,0,0,0,0-.79c-.14-.4-.3-.79-.4-1.2A4.07,4.07,0,0,0,43,97.51a1.34,1.34,0,0,1-.28-.18,1.85,1.85,0,0,0-1.19-.56.85.85,0,0,1-.17-.06c-.29-.2-.63-.11-1-.15a4.36,4.36,0,0,0-1-.1c-7.31,0-14.62,0-21.92,0a6,6,0,0,0-3.62,1.07.68.68,0,0,1-.33.16c-.16,0-.28,0-.16-.24a.92.92,0,0,1,.34-.31h0a2.12,2.12,0,0,1,.61-.37A5.08,5.08,0,0,1,17,96.06c6.66-.27,13.33-.12,20-.1a21.45,21.45,0,0,1,3.75.21,5.61,5.61,0,0,1,4.08,3C44.94,99.33,45,99.46,45.06,99.59Z"/><path class="cls-58" d="M11.45,126.36c-.09-.24-.07-.52-.25-.73-.27-7.82,0-15.65-.12-23.47a3.11,3.11,0,0,1,.24-1.35l.09.09a8,8,0,0,1,0,2.24c0,.4-.07.81-.07,1.22,0,5.29,0,10.59,0,15.88,0,1.61.16,3.21.14,4.82,0,.44.33.85.07,1.3Z"/><path class="cls-58" d="M13.65,97.15l-.37.48a2.07,2.07,0,0,1-.53.71.72.72,0,0,1-.37.18l-.08,0A3,3,0,0,1,13.65,97.15Z"/><path class="cls-58" d="M11.69,99.59a1.24,1.24,0,0,1,.61-1.1h0c.1.5-.22.8-.52,1.12Z"/><path class="cls-58" d="M11.32,100.81a1.68,1.68,0,0,1,.37-1.22h0a1,1,0,0,1-.36,1.22Z"/><path class="cls-58" d="M14.26,96.78a1.14,1.14,0,0,1-.61.37A.57.57,0,0,1,14.26,96.78Z"/><path class="cls-55" d="M24.4,19a4.46,4.46,0,0,0-1,1,5.85,5.85,0,0,1-3.09.75c-4.7,0-9.41,0-14.11,0a4.12,4.12,0,0,1-3.6-1.92A3.75,3.75,0,0,1,2,16.75q0-7.6,0-15.2A3.22,3.22,0,0,1,2.4,0a3.94,3.94,0,0,1,.37-.74L3-1A1.64,1.64,0,0,1,3.5-1.5l.12-.12c.11-.07.21-.08.28.05a.67.67,0,0,1-.26.47A4.07,4.07,0,0,0,2.45,2.05V16.4a3.7,3.7,0,0,0,2.31,3.67,3.49,3.49,0,0,0,1.43.26q7.38,0,14.77,0A3.78,3.78,0,0,0,23.7,19.2a2.43,2.43,0,0,1,.45-.4.54.54,0,0,1,.22,0c.11.08.1.17,0,.28Z"/><path class="cls-55" d="M22.94-2c.16.2.41.25.61.37a3.81,3.81,0,0,1,.85.85c.17.33.33.66.49,1a8.29,8.29,0,0,1,.31,2.27q0,6.86,0,13.7a4.85,4.85,0,0,1-.42,2.25h0c-.12.12-.05.43-.37.36h0c-.17-.26,0-.51,0-.76,0-.07.05-.14.07-.2a3.45,3.45,0,0,0,.22-1.38V2c0-2.59-1.46-4-3.84-4-4.87-.07-9.73,0-14.6,0-.53,0-1,.3-1.56.17-.1-.06-.22-.16,0-.25a3.49,3.49,0,0,1,.67-.21h0C6-2.41,6.58-2.54,7.2-2.54c4.26,0,8.52,0,12.78,0A7,7,0,0,1,22.94-2Z"/><path class="cls-50" d="M24.77,18.43a15,15,0,0,0,.37-4.58c0-3.07,0-6.14,0-9.22A22.62,22.62,0,0,0,24.89.21,3.21,3.21,0,0,1,25.24,2c0,4.9,0,9.8,0,14.7A2.4,2.4,0,0,1,24.77,18.43Z"/><path class="cls-50" d="M24.4,18.79l.37-.36a.59.59,0,0,1-.37.61Z"/><path class="cls-57" d="M68.9,19c0-2.36,0-4.72,0-7.08a5,5,0,0,1,.47-2.3,3.51,3.51,0,0,1,3-2c4.6-.3,9.2-.06,13.79-.14a12.58,12.58,0,0,1,2.6.24,3.64,3.64,0,0,1,3,3.27,27.65,27.65,0,0,1,.1,3.28q0,5.87,0,11.73a4.75,4.75,0,0,1-.82,2.94,3.65,3.65,0,0,1-2.79,1.52c-4.86.28-9.72.07-14.58.11A6.15,6.15,0,0,1,71,30a3.87,3.87,0,0,1-2.1-3.82C68.87,23.77,68.9,21.37,68.9,19Z"/><path class="cls-59" d="M88,99.83c.75.22.88.92,1.07,1.52a4.87,4.87,0,0,1,.14,1.38c0,3.44,0,6.89,0,10.33a3.5,3.5,0,0,1-1,2.82,3.7,3.7,0,0,1-2.6.8q-5.21.07-10.39,0a3.29,3.29,0,0,1-3.07-1.38,4,4,0,0,1-.48-2.11c0-3.58,0-7.17,0-10.75a3.19,3.19,0,0,1,1.08-2.68.68.68,0,0,1,.37-.18c.08.16,0,.26-.11.37l-.12.12a2.28,2.28,0,0,0-.46.61,1.08,1.08,0,0,0-.14.26,3.44,3.44,0,0,0-.22,1.31c0,3.73,0,7.45,0,11.18a1.8,1.8,0,0,0,.21,1.06A2.65,2.65,0,0,0,75,116.17c3.62,0,7.24,0,10.86,0a3,3,0,0,0,2.53-1.31.89.89,0,0,0,.35-.76.73.73,0,0,1,.05-.2c0-4,0-7.94,0-11.91a3,3,0,0,0-.19-.89l-.08-.18C88.46,100.5,88,100.29,88,99.83Z"/><path class="cls-60" d="M72.81,100l.24-.37a1.94,1.94,0,0,1,1.28-.48c3.25-.17,6.49-.17,9.73-.1.76,0,1.54.06,2.3.1a2.31,2.31,0,0,1,1.61.72c.19.34.59.54.61,1-.26,0-.36-.14-.49-.3a2.66,2.66,0,0,0-2.2-1c-3.62,0-7.24,0-10.85,0a5.92,5.92,0,0,0-1.71.4C73.15,100,73,100.09,72.81,100Z"/><path class="cls-61" d="M53.38,148.73c-3.17.26-6.35,0-9.52.13a2.54,2.54,0,0,1-2.81-2.73c-.07-2.75,0-5.5,0-8.25a2.55,2.55,0,0,1,2.78-2.71c2.87,0,5.74-.09,8.61,0,1.64.07,2.34.84,2.39,2.56.08,2.83,0,5.66,0,8.49a2.71,2.71,0,0,1-1.45,2.49Z"/><path class="cls-62" d="M22.2,36.39c0,.86,0,1.71,0,2.57a1.57,1.57,0,0,1-1.71,1.71H17.8c-.07-.21-.54.17-.45-.29.21-.14.42-.07.65-.05a9.93,9.93,0,0,0,2.72-.06,1.2,1.2,0,0,0,.6-.26l.21-.21a2,2,0,0,0,.37-1.37,7.83,7.83,0,0,0-.07-2,.68.68,0,0,1,.06-.52l.07-.08h.12C22.23,36,22.05,36.21,22.2,36.39Z"/><path class="cls-48" d="M17.07,35.05c.22-.31.59-.27.89-.3a9.36,9.36,0,0,1,3.21.1,1.12,1.12,0,0,1,.3.2.43.43,0,0,1-.3.11,26.3,26.3,0,0,0-3.66,0,.88.88,0,0,1-.36,0A.27.27,0,0,0,17.07,35.05Z"/><path class="cls-48" d="M17.31,40.43c.11.2.39,0,.49.24h-.49a1.46,1.46,0,0,1-1-1.22,12.89,12.89,0,0,1,0-3.67h.12c.19.19.08.41.08.63a9.8,9.8,0,0,0,.18,3.33C16.87,40,17.15,40.17,17.31,40.43Z"/><path class="cls-62" d="M16.7,39.94c-.39-.32-.34-.79-.35-1.21a13.86,13.86,0,0,1,.11-2.95.24.24,0,0,1,.12-.24.12.12,0,0,1,.16,0,.45.45,0,0,1,.06.36,1.16,1.16,0,0,1,0,.18,8.83,8.83,0,0,0,0,3.32,1.21,1.21,0,0,1,0,.18A.4.4,0,0,1,16.7,39.94Z"/><path class="cls-62" d="M21.23,35.05h.24c.11.28.48.38.49.73h0c-.19.09-.29-.06-.43-.14a.85.85,0,0,1-.17-.16C21.29,35.34,21.14,35.24,21.23,35.05Z"/><path class="cls-48" d="M16.7,35.54h-.12a.52.52,0,0,1,.49-.49h0C17.12,35.34,16.93,35.46,16.7,35.54Z"/><path class="cls-48" d="M22.2,36.39c-.2-.17-.09-.4-.12-.61C22.29,36,22.17,36.19,22.2,36.39Z"/><path class="cls-63" d="M41.39,36.52l.13-.13a8.32,8.32,0,0,1,3-.5q10.89,0,21.78,0a9.54,9.54,0,0,1,2.81.44,5.59,5.59,0,0,1,3.47,5.22c0,2.71,0,5.42,0,8.12a14.88,14.88,0,0,0,.14,1.89,2,2,0,0,0,1.54,1.56,15.83,15.83,0,0,0,1.69.15c4,0,7.95,0,11.92,0a3.39,3.39,0,0,1,3.53,3.54c0,4.56,0,9.13,0,13.69a10.17,10.17,0,0,1-.11,2.06,3.27,3.27,0,0,1-2.14,2.52.54.54,0,0,1-.31,0,.6.6,0,0,1-.26-.14c0-.41.43-.31.63-.48a5.46,5.46,0,0,0,.45-.36,1.93,1.93,0,0,0,.63-.61l.09-.14a.85.85,0,0,0,.15-.54c0-.33.19-.62.23-1a3,3,0,0,0,.1-.9V57.59a2.71,2.71,0,0,0-.1-.9,10.32,10.32,0,0,0-.46-1.46,1.15,1.15,0,0,0-.79-.85,1.38,1.38,0,0,1-.54-.27,1.29,1.29,0,0,0-.77-.2H88a3.64,3.64,0,0,0-1.09-.1H74.52a1.7,1.7,0,0,1-.84-.11,4.16,4.16,0,0,1-1.53-1.53,1.58,1.58,0,0,1-.12-.83c0-2.94,0-5.88,0-8.82a3.47,3.47,0,0,0-.11-1,1.48,1.48,0,0,1,0-.21,1.51,1.51,0,0,0-.08-.67,12.93,12.93,0,0,0-.58-1.4,4.64,4.64,0,0,0-3.73-2.59A1.21,1.21,0,0,1,67,36.5a2.25,2.25,0,0,0-.73,0q-10.94,0-21.86,0a2.44,2.44,0,0,0-.85.08c-.42.06-.82.22-1.25.26a1.07,1.07,0,0,0-.55.14L41.6,37a2.43,2.43,0,0,0-.47.28l-.14.1a5.85,5.85,0,0,0-1.17,1.16l-.12.13c-.1.06-.2.13-.31,0a.48.48,0,0,1-.07-.26A4.36,4.36,0,0,1,41.39,36.52Z"/><path class="cls-64" d="M88.82,74.9l.12.12c.08.14,0,.18-.12.25a3,3,0,0,1-1.22.24c-4.88,0-9.77,0-14.65,0a3.15,3.15,0,0,1-2.46-1,1.06,1.06,0,0,1-.37-.36,2.48,2.48,0,0,1-.85-1.5c0-.15-.07-.31-.11-.47-.38-1.6-.94-1.93-2.48-1.93-7.47,0-15,0-22.42,0a5.78,5.78,0,0,1-5.72-3.76,4.12,4.12,0,0,1-.32-1.6c0-7.92,0-15.84,0-23.76a4.94,4.94,0,0,1,1.82-3.88c.17-.11.32-.25.49-.37s.48-.45.85-.36A13.37,13.37,0,0,0,39.75,38c-.13.15-.31.26-.31.49a7.26,7.26,0,0,0-.82,3.46c0,7.47,0,15,0,22.42a5.23,5.23,0,0,0,3.46,5.11,6.26,6.26,0,0,0,2.21.38q11.21,0,22.42,0a2.8,2.8,0,0,1,2.27.82,2.66,2.66,0,0,1,.56,1.26,3.51,3.51,0,0,0,3.6,3.16q7.25,0,14.48,0A3.41,3.41,0,0,0,88.82,74.9Z"/><path class="cls-65" d="M88.82,75.27l.12-.25a3.42,3.42,0,0,0,2.33-3.41c0-4.89,0-9.78,0-14.67a3.38,3.38,0,0,0-1.68-3.1,3.61,3.61,0,0,0-1.92-.45H75.8a11.92,11.92,0,0,1-1.69-.15,2,2,0,0,1-1.55-1.75c-.26-3.27,0-6.55-.12-9.82a5.81,5.81,0,0,0-2.54-4.81c-.24-.17-.61-.14-.76-.47a.06.06,0,0,1,0-.08s0,0,0,0a4.14,4.14,0,0,1,2.45,1.88,7.33,7.33,0,0,1,1.12,4.67c-.08,2.52,0,5,0,7.57A3,3,0,0,0,73,52a2,2,0,0,0,1.67,1c4,.26,8,.06,12.07.11a9.2,9.2,0,0,1,2.1.14,3.42,3.42,0,0,1,2.65,3.3c0,4.61,0,9.23,0,13.84a11.34,11.34,0,0,1-.14,2.4A3.23,3.23,0,0,1,88.82,75.27Z"/><path class="cls-64" d="M69.14,36.27v.12A17.08,17.08,0,0,0,64.25,36C57.63,36,51,36,44.4,36c-1,0-1.92.3-2.88.37.3-.41.81-.32,1.22-.48s1.15,0,1.71-.13H66.33c.52.13,1.07,0,1.59.12S68.77,36,69.14,36.27Z"/><path class="cls-65" d="M44.45,35.78c-.55.26-1.14.06-1.71.13A4.12,4.12,0,0,1,44.45,35.78Z"/><path class="cls-65" d="M67.92,35.9c-.53-.06-1.08.15-1.59-.12A3.71,3.71,0,0,1,67.92,35.9Z"/><path class="cls-65" d="M40.54,36.88a.58.58,0,0,1-.49.37A.58.58,0,0,1,40.54,36.88Z"/><path class="cls-65" d="M70.12,74.17a.72.72,0,0,1,.37.36A.34.34,0,0,1,70.12,74.17Z"/><path class="cls-60" d="M11.33,100.81a4.29,4.29,0,0,0,.36-1.22,4.55,4.55,0,0,0,.61-1.1l.37-.24c.17.27,0,.46-.16.66a6.25,6.25,0,0,0-.9,3.24c0,7.29,0,14.58,0,21.87a6.6,6.6,0,0,0,.57,2.9A4.93,4.93,0,0,0,17,129.85c6.21,0,12.42,0,18.63,0,1.26,0,2.52,0,3.79,0a6,6,0,0,0,2.89-.61.91.91,0,0,1,.46-.13c.1,0,.13.07.09.16a5.3,5.3,0,0,1-3.14,1c-7.6,0-15.19,0-22.79,0a5.45,5.45,0,0,1-5.36-3.9,23.6,23.6,0,0,1-.36-4.89q0-8.25,0-16.48C11.21,103.6,11.28,102.2,11.33,100.81Z"/><path class="cls-57" d="M42.86,129.29v-.12A2,2,0,0,1,44,128a.3.3,0,0,1,.25.09A2.26,2.26,0,0,1,42.86,129.29Z"/><path class="cls-66" d="M44.21,128.07H44c0-.37.08-.61.49-.61v.24Z"/><path class="cls-67" d="M44.45,127.46a1.1,1.1,0,0,0-.49.61,9.52,9.52,0,0,0-1.1,1.1,7,7,0,0,1-3.62.87c-7.39,0-14.78,0-22.17,0a5.23,5.23,0,0,1-5.44-4.19,7.79,7.79,0,0,1-.18-1.74c0-7.35,0-14.7,0-22a6,6,0,0,1,1-3.32c.09-.16.25-.28.24-.48.21-.21.33-.49.61-.62a7.2,7.2,0,0,1,2.52-1.14,10.71,10.71,0,0,1,1.62-.2h21.3a7.4,7.4,0,0,1,1.82.12c.27.14.62,0,.86.25h.12a3.19,3.19,0,0,1,1.22.61l.24.12c.14.11.25.21,0,.33a1.88,1.88,0,0,1-1.07-.4,6,6,0,0,0-2.83-.6q-10.73,0-21.44,0a6.75,6.75,0,0,0-2.91.57A4.88,4.88,0,0,0,12,101a9.85,9.85,0,0,0-.12,1.88c0,7.11,0,14.21,0,21.32a5,5,0,0,0,4.45,5.38,4.94,4.94,0,0,0,.86,0c7.49,0,15,0,22.48,0a5,5,0,0,0,5.09-5.1q0-11.3,0-22.6a7.72,7.72,0,0,0-.31-1.79,1.37,1.37,0,0,1-.1-.66c.12-.23.23-.14.34,0l.36,1.22c.16.23,0,.51.12.73V125c-.16.22,0,.5-.12.73C45,126.36,44.52,126.84,44.45,127.46Z"/><path class="cls-66" d="M43.11,97.64,43,97.39a4.18,4.18,0,0,1,1.72,2.08l-.25-.12s0,0-.06,0A6.18,6.18,0,0,1,43.11,97.64Z"/><path class="cls-66" d="M42.74,97.27l-1.22-.61A1.37,1.37,0,0,1,42.74,97.27Z"/><path class="cls-66" d="M41.4,96.66c-.28-.13-.61,0-.86-.25C40.84,96.46,41.2,96.28,41.4,96.66Z"/><path class="cls-66" d="M45.06,125.75c0-.25-.1-.52.12-.73C45.14,125.26,45.28,125.53,45.06,125.75Z"/><path class="cls-66" d="M45.18,101.42c-.22-.21-.08-.48-.12-.73C45.28,100.9,45.14,101.18,45.18,101.42Z"/><path class="cls-64" d="M3.87-1.62,4.6-2c5.36-.53,10.73-.12,16.09-.23A4.11,4.11,0,0,1,24-.91a3.39,3.39,0,0,1,.9,2.33c0,5.15,0,10.3,0,15.45a1.72,1.72,0,0,1-.36,1.19.64.64,0,0,1-.11-.52c0-1,.18-2.06.18-3.09V3.7c0-.9-.1-1.79-.15-2.68a3.3,3.3,0,0,0-3.19-2.83C17-2,12.8-2,8.57-1.91A11.9,11.9,0,0,0,5-1.61,3.27,3.27,0,0,0,2.7,1.29c-.07,1.17-.14,2.35-.13,3.52,0,3.16,0,6.32,0,9.47a23.54,23.54,0,0,0,.15,2.91,3.26,3.26,0,0,0,3.07,2.89c1.42.11,2.84.14,4.26.14,2.91,0,5.82,0,8.73,0,.91,0,1.83,0,2.73-.14A3.29,3.29,0,0,0,24,18.62c.15-.22.21-.56.58-.56a2.24,2.24,0,0,1-.13.73,13.59,13.59,0,0,1-1.6,1.28,4.08,4.08,0,0,1-1.74.42q-7.47,0-14.92,0a3.84,3.84,0,0,1-3.86-3.91c0-4.83,0-9.66,0-14.49A4.28,4.28,0,0,1,3.68-1.38,1.12,1.12,0,0,0,3.87-1.62Z"/><path class="cls-68" d="M69.26,19c0-2.57,0-5.13,0-7.7a3.3,3.3,0,0,1,1.9-3.09,4.39,4.39,0,0,1,2-.39c4.89,0,9.78,0,14.66,0a3.52,3.52,0,0,1,3.73,3.77c0,4.93,0,9.86,0,14.78a3.52,3.52,0,0,1-3.21,3.7c-.48,0-1,.1-1.45.1-4.64,0-9.28,0-13.93,0A3.36,3.36,0,0,1,69.54,28a3.9,3.9,0,0,1-.28-1.48C69.27,24,69.26,21.5,69.26,19Z"/><path class="cls-68" d="M72.81,100A7.31,7.31,0,0,1,76,99.33c3,0,5.94,0,8.91,0,1.45,0,2.75.19,3.63,1.48h0a5.47,5.47,0,0,1,.31,1.84c0,3.61,0,7.22,0,10.83a1.24,1.24,0,0,1-.06.66h0c-.12.23,0,.53-.24.73a3.41,3.41,0,0,1-3.07,1.49c-3.42-.07-6.84,0-10.26,0-1.39,0-2.57-.3-3.17-1.71a3.65,3.65,0,0,1-.19-1.31c0-3.6,0-7.19,0-10.79a5,5,0,0,1,.31-1.84l.12-.12c.14-.23.36-.39.49-.61Z"/><path class="cls-60" d="M72.2,100.69c-.55,4.32-.11,8.65-.24,13a6.43,6.43,0,0,0,.12,1,1.37,1.37,0,0,1-.25-.92V102A1.92,1.92,0,0,1,72.2,100.69Z"/><path class="cls-60" d="M88.82,114.14c0-3.87,0-7.73,0-11.59,0-.61-.26-1.15-.26-1.74a1.82,1.82,0,0,1,.36,1.25c0,3.86,0,7.71,0,11.57C88.94,113.8,89,114,88.82,114.14Z"/><path class="cls-60" d="M72.81,100c0,.31-.26.46-.49.61C72.35,100.26,72.58,100.11,72.81,100Z"/><path class="cls-60" d="M88.58,114.87c.08-.24.06-.52.24-.73C88.8,114.4,88.92,114.71,88.58,114.87Z"/><path class="cls-69" d="M52.27,148.51c-2.49.16-4.82.09-7.15.09a17.46,17.46,0,0,1-2-.13,2,2,0,0,1-1.68-1.74c-.18-2.45-.16-4.9-.1-7.35,0-.63,0-1.27.08-1.91a2.15,2.15,0,0,1,1.86-1.94c2.54-.2,5.1-.11,7.65-.12.59,0,1.19.07,1.79.12a1.94,1.94,0,0,1,1.78,1.71c.08.78.12,1.56.13,2.34,0,1.59,0,3.18,0,4.76a24,24,0,0,1-.13,2.4,1.89,1.89,0,0,1-1.34,1.65C52.79,148.51,52.42,148.41,52.27,148.51Z"/><path class="cls-70" d="M21.47,35.42l.12.12A3,3,0,0,1,22,37.59a3.72,3.72,0,0,1-.39,2.35l-.12.12a4.13,4.13,0,0,1-2.39.4,9.84,9.84,0,0,1-1.32-.08,1,1,0,0,1-1.06-.81,10.23,10.23,0,0,1,0-3.66c.1-.12.18-.25.32,0,0,1,0,1.9,0,2.85S17.38,40,18.3,40c.65,0,1.3,0,1.95,0a1.17,1.17,0,0,0,1.29-1.29c0-.63,0-1.26,0-1.89,0-.92-.43-1.36-1.34-1.36a20.86,20.86,0,0,0-2.5,0,.48.48,0,0,1-.4-.08c0-.35.26-.37.51-.38,1,0,1.9,0,2.85,0A1.51,1.51,0,0,1,21.47,35.42Z"/><path class="cls-58" d="M16.7,39.57a1.56,1.56,0,0,0,1.55.75c.58,0,1.15.09,1.74,0a5.69,5.69,0,0,0,1.48-.27c-.39.5-1,.45-1.49.48a12,12,0,0,1-2.67-.11c-.31,0-.45-.26-.61-.49Z"/><path class="cls-58" d="M21.59,39.94a7.84,7.84,0,0,0,0-4.4l.37.24a14,14,0,0,1,.11,2.66C22,39,22.1,39.55,21.59,39.94Z"/><path class="cls-58" d="M17,35.78l-.25.13v-.37l.37-.49a23.47,23.47,0,0,1,3.75-.12,1.59,1.59,0,0,1,.41.12l.24.37a10.09,10.09,0,0,0-3.83-.24.37.37,0,0,0-.33.24A1,1,0,0,1,17,35.78Z"/><path class="cls-58" d="M16.7,35.91v3.66A6,6,0,0,1,16.7,35.91Z"/><path class="cls-71" d="M89.07,54a.65.65,0,0,0,.49.24,3.85,3.85,0,0,1,.85.86c.16.44.33.89.49,1.34a12.71,12.71,0,0,0,0,1.38c0,4.52,0,9,0,13.56,0,.24-.19.47,0,.71a2.08,2.08,0,0,0-.24.85c-.1.16-.12.35-.25.49a3.2,3.2,0,0,1-.73.74.76.76,0,0,1-.37.36,9,9,0,0,0-1.13.41,5.24,5.24,0,0,1-1.81,0q-6,0-12.08,0a8.87,8.87,0,0,1-2.36-.12l-.19-.07a3.53,3.53,0,0,1-2-2.2,1.52,1.52,0,0,1-.06-.2,11.4,11.4,0,0,0-.42-1.52c-.48-.94-1.4-1-2.28-1.15a3.37,3.37,0,0,0-.55,0h-21a9.59,9.59,0,0,1-3.25-.24L42,69.4c-.61-.34-1.17-.76-1.78-1.12a.52.52,0,0,1-.18-.18,4.45,4.45,0,0,0-.89-1.22.65.65,0,0,1-.14-.33,6.53,6.53,0,0,1-.3-2.44,6.18,6.18,0,0,0,0-.86V42.78a3.1,3.1,0,0,0-.06-.91,2.42,2.42,0,0,1-.06-.66,4.41,4.41,0,0,1,.16-1.3,1.21,1.21,0,0,1,0-.18,8.39,8.39,0,0,0,.81-1.14A9.5,9.5,0,0,1,41,37.25a3.81,3.81,0,0,0,.61-.37,1.59,1.59,0,0,0,.49-.24,5.09,5.09,0,0,0,1.22-.25c.27.13.53-.16.79,0H66.67a.51.51,0,0,1,.52.13,3.55,3.55,0,0,1,2.42.65A5.64,5.64,0,0,1,72,40.55c.15.18,0,.43.13.61v.12a8,8,0,0,0,0,1.38q0,3.54,0,7.08a9.61,9.61,0,0,0,.12,1.69c0,.24-.1.52.12.73a1.92,1.92,0,0,0,1.35,1.35c.21.22.48.08.73.12a7.63,7.63,0,0,0,1.51.12c3.84,0,7.69,0,11.53,0,.26,0,.51.18.77,0h.12A4,4,0,0,0,89.07,54Z"/><path class="cls-72" d="M39,39.69v.13a3.23,3.23,0,0,0-.19,1.45c0,.21,0,.42,0,.63q0,10.76,0,21.52c0,.2,0,.41,0,.61a5.92,5.92,0,0,0,.41,2.56.26.26,0,0,0,.13.24,11.55,11.55,0,0,0,.85,1.22l.12.13A8.38,8.38,0,0,0,42,69.28a5.7,5.7,0,0,0,2.55.39l.85,0q10.55,0,21.08,0a10.2,10.2,0,0,1,1.57.18,1.91,1.91,0,0,1,1.46,1.47c.15.42.18.87.36,1.29a2.86,2.86,0,0,0,1.83,2.07h0a3.89,3.89,0,0,0,1.84.3c4.37-.12,8.74,0,13.1,0,.65,0,1.29,0,1.93,0h.24a1.27,1.27,0,0,1-1.1.36c-4.89,0-9.78.07-14.67,0-1.84,0-3.17-.78-3.62-3.19a2.43,2.43,0,0,0-2.64-2q-11.33,0-22.67,0a5.5,5.5,0,0,1-5.07-3,4.59,4.59,0,0,1-.58-2.22c0-7.88,0-15.76,0-23.65a3.51,3.51,0,0,1,1-2.66v.25A1.62,1.62,0,0,1,39,39.69Z"/><path class="cls-68" d="M88.58,74.9a3.12,3.12,0,0,1-1,.12H73.21a2.28,2.28,0,0,1-1.5-.37,11.5,11.5,0,0,0,2.62.14c4,0,8-.06,12,0a12.26,12.26,0,0,0,3-.28Z"/><path class="cls-73" d="M90.9,72.09a2.46,2.46,0,0,1-.11-1.17q0-6.66,0-13.31a2.45,2.45,0,0,1,.11-1.17A7.36,7.36,0,0,1,91,58.25v12A7.4,7.4,0,0,1,90.9,72.09Z"/><path class="cls-73" d="M88.21,53.75a1.92,1.92,0,0,1-1.11.11q-5.58,0-11.17,0a4.22,4.22,0,0,1-1.53-.23h12A7.29,7.29,0,0,1,88.21,53.75Z"/><path class="cls-74" d="M44,36.39c-.2,0-.41.27-.61,0a3.48,3.48,0,0,1,1-.12H66.53c.23,0,.56-.17.66.24l-.37-.13a1.12,1.12,0,0,1-.6.06H44.56A1.12,1.12,0,0,1,44,36.39Z"/><path class="cls-73" d="M72.2,51.43A3.9,3.9,0,0,1,72,50c0-2.8,0-5.61,0-8.41a.31.31,0,0,1,.12-.27,7.84,7.84,0,0,1,.12,1.93Z"/><path class="cls-73" d="M73.67,53.51a1.38,1.38,0,0,1-1.35-1.35A4,4,0,0,0,73.67,53.51Z"/><path class="cls-74" d="M39,39.69c.16-.32.2-.71.49-1l.24-.13C39.56,39,39.45,39.5,39,39.69Z"/><path class="cls-74" d="M41,37.25a8.15,8.15,0,0,1-1.35,1.34A3,3,0,0,1,41,37.25Z"/><path class="cls-73" d="M90.41,55.1a3.47,3.47,0,0,1-.85-.86A1.28,1.28,0,0,1,90.41,55.1Z"/><path class="cls-73" d="M89.68,74.17a2.57,2.57,0,0,1,.73-.74A1,1,0,0,1,89.68,74.17Z"/><path class="cls-74" d="M41.64,36.88a.59.59,0,0,1-.61.37A.77.77,0,0,1,41.64,36.88Z"/><path class="cls-73" d="M89.07,54a.82.82,0,0,1-.74-.25A1.16,1.16,0,0,1,89.07,54Z"/><path class="cls-74" d="M42.13,36.64c-.09.22-.28.25-.49.24A.65.65,0,0,1,42.13,36.64Z"/><path class="cls-73" d="M72.08,41.16c-.21-.17-.1-.4-.13-.61C72.16,40.72,72.05,41,72.08,41.16Z"/><path class="cls-73" d="M90.41,73.43a.69.69,0,0,1,.25-.49A.44.44,0,0,1,90.41,73.43Z"/><path class="cls-75" d="M43.11,97.64a18.69,18.69,0,0,1,1.34,1.71c.72,2.07.48,4.22.48,6.34,0,6.27,0,12.55,0,18.82a5.1,5.1,0,0,1-5.27,5.27c-7.59,0-15.19,0-22.79,0A4.93,4.93,0,0,1,12.34,127a6.18,6.18,0,0,1-.65-2.88q0-11,0-21.94A5.59,5.59,0,0,1,14,97.49a5.31,5.31,0,0,1,2.33-.83,19.27,19.27,0,0,1,3.22-.12H38.27a7.84,7.84,0,0,1,4.54,1.06C42.89,97.64,43,97.62,43.11,97.64Z"/><path class="cls-60" d="M24.53,18.06a3.87,3.87,0,0,1-2.9,2.18,22.18,22.18,0,0,1-2.58.14c-3.65,0-7.3,0-10.94,0a12.11,12.11,0,0,1-2.94-.21,3.51,3.51,0,0,1-2.65-3.24c-.23-4.55-.1-9.1-.09-13.64A6.75,6.75,0,0,1,2.91-.1,3.47,3.47,0,0,1,6-2c4.18-.23,8.36-.13,12.54-.11a16.44,16.44,0,0,1,3.43.22,3.57,3.57,0,0,1,2.74,3.41c.12,3,.06,6,.09,9a59.47,59.47,0,0,1-.24,7.55Z"/><path class="cls-76" d="M69.63,19.49c0-2.95,0-5.33,0-7.72a8.56,8.56,0,0,1,.13-1.51A3.68,3.68,0,0,1,72.38,8.2l8,0c2.26,0,4.52,0,6.78,0a5.57,5.57,0,0,1,2.26.41,2.62,2.62,0,0,1,1.6,2,10.68,10.68,0,0,1,.15,1.88q0,6.78,0,13.56a6.26,6.26,0,0,1-.21,1.62,3.44,3.44,0,0,1-2.87,2.09c-2.95.19-5.89,0-8.84.08-1.8,0-3.59,0-5.38,0a13.23,13.23,0,0,1-2.1-.22,3.05,3.05,0,0,1-2-2.3C69.48,24.5,69.74,21.71,69.63,19.49Z"/><path class="cls-75" d="M85.69,116H75.87c-.44,0-.87.06-1.31,0a2.19,2.19,0,0,1-2.26-2.23q0-5.17,0-10.36c0-.44,0-.88,0-1.32a2.27,2.27,0,0,1,2.52-2.42c3.27,0,6.53,0,9.8,0a7.46,7.46,0,0,1,2.26.13c1.45.43,1.69,1.7,1.65,2.82,0,.24-.05.48-.05.72,0,3,0,6,0,9,0,.36.06.72,0,1.08C88.43,115.62,87.13,115.93,85.69,116Z"/><path class="cls-75" d="M53.13,148c-3.15.27-6.32.05-9.47.12a2.75,2.75,0,0,1-1.41-.49,2.9,2.9,0,0,1-.53-2c.06-2.42.05-4.84,0-7.25,0-.89,0-1.82,1-2.3a2.68,2.68,0,0,1,1.24-.22c2.64.07,5.29.08,7.93,0,1.63-.05,2.3.86,2.25,2.37-.09,2.52-.08,5,0,7.57A2.22,2.22,0,0,1,53.13,148Z"/><path class="cls-68" d="M53.13,148a2.89,2.89,0,0,0,.89-2.47c-.06-2.46-.1-4.92,0-7.38.07-1.38-.48-2.28-2.11-2.2s-3.13,0-4.7.06c-1.23,0-2.46,0-3.7,0a1.57,1.57,0,0,0-1.69,1.77c0,2.4,0,4.79,0,7.18a6.23,6.23,0,0,0,.1,2c.08.24.28.41.27.67a1.54,1.54,0,0,1-.6-1.39q0-4.25,0-8.49a1.85,1.85,0,0,1,2-2q4.4,0,8.79,0a1.77,1.77,0,0,1,1.78,1.82c0,2.93,0,5.86,0,8.79A1.57,1.57,0,0,1,53.13,148Z"/><path class="cls-67" d="M17,35.78a.34.34,0,0,1,.36-.36,13.42,13.42,0,0,1,3.1-.11,1.26,1.26,0,0,1,1.3,1.26c0,.77,0,1.55,0,2.32a1.29,1.29,0,0,1-1.34,1.29c-.77,0-1.55,0-2.32,0A1.18,1.18,0,0,1,16.84,39,15.1,15.1,0,0,1,17,35.78Z"/><path class="cls-76" d="M55.42,36.64c3.77,0,7.54,0,11.31,0a5,5,0,0,1,4.73,3.17,6.9,6.9,0,0,1,.36,2.2c0,2.73,0,5.46,0,8.19a7.35,7.35,0,0,0,.27,2.14,1.89,1.89,0,0,0,1.38,1.39,7.07,7.07,0,0,0,2.2.27c3.93,0,7.86,0,11.79,0a2.88,2.88,0,0,1,2.81,1.35,3.65,3.65,0,0,1,.39,1.76c0,4.76,0,9.53,0,14.3a3.1,3.1,0,0,1-2.1,3.06,6.62,6.62,0,0,1-1.39.18c-4.56,0-9.12,0-13.68,0A3.12,3.12,0,0,1,70.3,72.9,11.15,11.15,0,0,1,69.81,71a2.53,2.53,0,0,0-2.54-1.61,3.33,3.33,0,0,1-.55,0c-7.39,0-14.78,0-22.18,0a5.34,5.34,0,0,1-3.24-.82,4.94,4.94,0,0,1-2.22-4.08c0-7.64,0-15.28,0-22.92a4.49,4.49,0,0,1,.87-2.82,5.46,5.46,0,0,1,1.69-1.49,6.39,6.39,0,0,1,3.16-.61Z"/><path class="cls-68" d="M69.88,72.58c-.22-.17-.21-.43-.28-.66-.55-1.94-1-2.11-2.77-2.13-5.09-.06-10.17,0-15.26,0H44a11.24,11.24,0,0,1-1.74-.26.36.36,0,0,1-.26-.23,12.89,12.89,0,0,0,3.34.26c7.11,0,14.22,0,21.33,0a6.26,6.26,0,0,1,1.88.35,1.82,1.82,0,0,1,1,1.18A7.65,7.65,0,0,1,69.88,72.58Z"/><path class="cls-68" d="M39.19,66.59c-.44-.47-.36-1.1-.48-1.67a5.08,5.08,0,0,1,0-.78,1.12,1.12,0,0,1-.06-.6V42.37a1.12,1.12,0,0,1,.06-.6v-.61s.08,0,.12,0v.61a1.11,1.11,0,0,1,.05.6q0,10.65,0,21.3a1.08,1.08,0,0,1-.05.59A15.25,15.25,0,0,0,39.19,66.59Z"/><path class="cls-73" d="M44,36.39H66.82c-.18.2-.42.12-.63.12q-10.8,0-21.6,0C44.38,36.51,44.14,36.59,44,36.39Z"/><path class="cls-74" d="M38.83,64.26V41.77c.2.18.12.42.12.64V63.63C39,63.84,39,64.08,38.83,64.26Z"/><path class="cls-68" d="M71.71,74.65a2.27,2.27,0,0,1-1.83-2.07,3.52,3.52,0,0,1,.28.46,2.17,2.17,0,0,0,1.29,1.37C71.55,74.45,71.62,74.57,71.71,74.65Z"/><path class="cls-68" d="M42,69.28a3.09,3.09,0,0,1-1.72-1.1A8.66,8.66,0,0,1,42,69.28Z"/><path class="cls-68" d="M40.17,68.05a2.05,2.05,0,0,1-.85-1.22A2.82,2.82,0,0,1,40.17,68.05Z"/><path class="cls-63" d="M38.83,41.16h-.12A1.9,1.9,0,0,1,39,39.82,7.5,7.5,0,0,0,38.83,41.16Z"/><path class="cls-63" d="M38.71,41.77V64.14c-.2-.18-.12-.42-.12-.63q0-10.56,0-21.1C38.59,42.19,38.51,42,38.71,41.77Z"/><path class="cls-77" d="M12.13,125.24a4.82,4.82,0,0,1-.08-1.84c0-6.82,0-13.65,0-20.47a7.7,7.7,0,0,1,.37-3.06,4.75,4.75,0,0,1,2.48-2.47,7.07,7.07,0,0,1,3.47-.52c2.47.07,4.93,0,7.4,0H38.1a15.42,15.42,0,0,1,2,0,4.85,4.85,0,0,1,3.55,2,5.42,5.42,0,0,1,.91,3.5c-.09,2.4,0,4.8,0,7.21,0,4.68,0,9.36,0,14.05a9,9,0,0,1,0,1.8,3.79,3.79,0,0,1-1.25,2.44c-.34.27-.53.67-1,.89a11.47,11.47,0,0,1-2.34.71c-.32.07-.66-.11-1-.11H17.62a10.35,10.35,0,0,1-1.37,0,4.53,4.53,0,0,1-3.72-2.86C12.35,126.2,12,125.86,12.13,125.24Z"/><path class="cls-74" d="M23.79,18.67l-.12.12a1,1,0,0,1-.37.37,3.48,3.48,0,0,1-2.71,1c-4.66,0-9.32,0-14,0a3.77,3.77,0,0,1-3-1.15,3.71,3.71,0,0,1-.92-2.5c0-4.8,0-9.6,0-14.4A3.52,3.52,0,0,1,4.3-1.26a4,4,0,0,1,1.61-.48C8.28-2,10.66-1.81,13-1.86a1.3,1.3,0,0,0,.65.05c2.22,0,4.44-.06,6.65.07a1.73,1.73,0,0,1,.6.07c.12.24-.09.27-.22.31a2.51,2.51,0,0,1-.67,0c-4.56,0-9.12,0-13.68,0A3.24,3.24,0,0,0,4.3-.75,2.79,2.79,0,0,0,3.17,1.44c0,5.13,0,10.26,0,15.39A2.93,2.93,0,0,0,6.27,19.6c4.78,0,9.56,0,14.35,0a3.9,3.9,0,0,0,2.2-.54c.32-.2.49-.62.91-.68C23.88,18.46,23.86,18.56,23.79,18.67Z"/><path class="cls-68" d="M21-1.62c-2.49-.21-5-.1-7.49-.12-.16,0-.33,0-.45-.12q3.45,0,6.9,0a8,8,0,0,1,2.61.42A2.94,2.94,0,0,1,24.4,1c.29,5.22.07,10.45.1,15.68a2.23,2.23,0,0,1-.71,2v-.24s0-.09,0-.12A13.36,13.36,0,0,0,24,14.08c0-3.67,0-7.35,0-11,0-.51.1-1,.05-1.51a2.9,2.9,0,0,0-2.49-2.86C21.32-1.36,21.09-1.38,21-1.62Z"/><path class="cls-68" d="M23.3,19.16a.78.78,0,0,1,.37-.37A.34.34,0,0,1,23.3,19.16Z"/><path class="cls-78" d="M90.49,19.29q0,3.6,0,7.2A2.48,2.48,0,0,1,88,29.06c-4.8.27-9.6.07-14.4.1a4.54,4.54,0,0,1-2.06-.4,2.1,2.1,0,0,1-1.17-1.54,6.29,6.29,0,0,1-.15-1.44q0-6.81,0-13.62a7.06,7.06,0,0,1,.17-1.51,2.18,2.18,0,0,1,2-1.73,11.94,11.94,0,0,1,1.81-.16q6,0,12,0c.71,0,1.42.08,2.12.15a2.4,2.4,0,0,1,2.07,2.21C90.67,13.84,90.44,16.57,90.49,19.29Z"/><path class="cls-76" d="M88.2,107.9v5.79a2,2,0,0,1-2,2c-3.54,0-7.08,0-10.62,0a4.45,4.45,0,0,1-1.76-.22,1.67,1.67,0,0,1-1.24-1.61c0-3.9,0-7.8,0-11.71,0-1.52.58-2.12,2.43-2.18,3.22-.1,6.43,0,9.65,0a14.93,14.93,0,0,1,1.5,0,2.12,2.12,0,0,1,2,2.17c-.09,1.91,0,3.82,0,5.73Z"/><path class="cls-76" d="M48.3,136.26c1.13,0,2.54,0,3.94.05,1.13.07,1.44.4,1.47,1.48.09,2.81,0,5.62,0,8.43,0,1-.52,1.45-1.51,1.49-2.6.09-5.21,0-7.81,0-.34,0-.69,0-1,0a1.61,1.61,0,0,1-1.25-1.48c0-2.82,0-5.65,0-8.47a1.42,1.42,0,0,1,1.54-1.52Z"/><path class="cls-71" d="M19.3,35.54h1.1a1.07,1.07,0,0,1,1.07,1.07c0,.71,0,1.42,0,2.13a1.09,1.09,0,0,1-1.19,1.2H18.2c-.75,0-1.09-.3-1.12-1s0-1.62,0-2.44a.91.91,0,0,1,.94-.91C18.45,35.52,18.88,35.54,19.3,35.54Z"/><path class="cls-78" d="M55.43,37.13H66.37a5.35,5.35,0,0,1,2.74.64,4.13,4.13,0,0,1,2.11,3.43c.28,3.35,0,6.71.13,10.06a3.18,3.18,0,0,0,.94,2.42,3.09,3.09,0,0,0,2.23.79c4.18,0,8.35,0,12.53,0a4.27,4.27,0,0,1,1.9.33,2.49,2.49,0,0,1,1.2,2.55q0,6.9,0,13.81c0,1.7-.58,2.51-1.88,2.81a6.78,6.78,0,0,1-1.56.17q-6.39,0-12.77,0A6.85,6.85,0,0,1,72.32,74a2.51,2.51,0,0,1-1.83-2.39c-.26-1.92-1.1-2.67-3-2.67-7.52,0-15,0-22.55,0a5.64,5.64,0,0,1-3.73-1.06,4,4,0,0,1-1.53-3c-.19-7.57-.06-15.14-.08-22.72a5,5,0,0,1,1-3.42,3.92,3.92,0,0,1,2.64-1.46c3.08-.28,6.18-.06,9.27-.12C53.48,37.11,54.46,37.13,55.43,37.13Z"/><path class="cls-78" d="M28.25,129.17c-3.72,0-7.45,0-11.18,0a4.64,4.64,0,0,1-3.49-1.45,5.3,5.3,0,0,1-1.16-2.64A10,10,0,0,1,12.3,123c0-6.87,0-13.73,0-20.59A4.86,4.86,0,0,1,14.49,98a6,6,0,0,1,3.26-.81q10.63,0,21.26,0a5.69,5.69,0,0,1,3.46,1A4.58,4.58,0,0,1,44.2,101a8.37,8.37,0,0,1,.13,2.06c0,7.11,0,14.22,0,21.33A4.35,4.35,0,0,1,41,129a5.88,5.88,0,0,1-1.56.22Z"/><path class="cls-75" d="M21-1.62c.46.16.94.2,1.4.39A3.11,3.11,0,0,1,24.23,2a3.81,3.81,0,0,0-.07.67c0,4.33,0,8.67,0,13a4.93,4.93,0,0,1-.38,2.71,6,6,0,0,1-1.58,1.18,3.26,3.26,0,0,1-.94.21c-4.95-.12-9.89,0-14.84,0a3.21,3.21,0,0,1-3.36-2.33A4,4,0,0,1,3,16.31C3,11.53,3,6.75,3,2A4.32,4.32,0,0,1,3.62-.31a1.91,1.91,0,0,1,1.27-.94,7.64,7.64,0,0,1,2-.26c4.47,0,9,0,13.43,0C20.56-1.5,20.8-1.42,21-1.62Z"/><path class="cls-78" d="M72.93,107.87c0-1.55,0-3.1,0-4.65a12.67,12.67,0,0,1,.16-1.51,1.49,1.49,0,0,1,1.34-1.24,12,12,0,0,1,1.69-.14q4.33,0,8.68,0a9.26,9.26,0,0,1,1.57.14,1.42,1.42,0,0,1,1.29,1.2,8,8,0,0,1,.19,1.38q0,4.78,0,9.59a7.11,7.11,0,0,1-.15,1.38,1.58,1.58,0,0,1-1.5,1.22c-3.6.27-7.2.07-10.8.09a2.41,2.41,0,0,1-1.83-.49,2.63,2.63,0,0,1-.61-2C72.9,111.17,72.93,109.52,72.93,107.87Z"/><path class="cls-78" d="M48,147.38c-1.12,0-2.24,0-3.36,0a4.41,4.41,0,0,1-1.2-.18c-.88-.24-.85-1.06-.87-1.7-.06-2.34,0-4.68,0-7a4.31,4.31,0,0,1,.14-.77c.17-.73.55-1.05,1.61-1.07,2.46,0,4.93-.09,7.39,0,1.4.06,1.66.4,1.71,1.86.09,2.32,0,4.64,0,7a3.16,3.16,0,0,1-.18,1c-.27.77-.95.88-1.64.89C50.35,147.4,49.15,147.38,48,147.38Z"/><path class="cls-79" d="M17.37,38.66a6.64,6.64,0,0,0,0-2c-.07-.33.59-.89.92-.83a6.53,6.53,0,0,0,1.82,0,1,1,0,0,1,1.06,1,6,6,0,0,0,0,1.69,1.09,1.09,0,0,1-1,1.05,6,6,0,0,0-1.75,0A1.07,1.07,0,0,1,17.37,38.66Z"/><path class="cls-76" d="M13.59,19.53H6.25a2.76,2.76,0,0,1-2.94-2.36,7.93,7.93,0,0,1-.05-1.38c0-4.44,0-8.88,0-13.32A4.33,4.33,0,0,1,3.59.34,3.07,3.07,0,0,1,6.38-1.23a6.09,6.09,0,0,0,1,0c4.2,0,8.39,0,12.59,0A5.84,5.84,0,0,1,22.19-1,2.59,2.59,0,0,1,23.9,1.58c0,4.84,0,9.69,0,14.54a3.92,3.92,0,0,1-.39,2,2.81,2.81,0,0,1-2.6,1.38C18.47,19.54,16,19.53,13.59,19.53Z"/><path class="cls-80" d="M17.8,37.71c0-1,.46-1.46,1.51-1.44s1.45.47,1.43,1.53-.44,1.41-1.48,1.41S17.79,38.77,17.8,37.71Z"/><path class="cls-78" d="M23.55,9.13c0,2.26,0,4.52,0,6.78a3.18,3.18,0,0,1-1,2.59,3.71,3.71,0,0,1-2.42.64q-6.54.06-13.07,0a3.77,3.77,0,0,1-2.48-.66,3.16,3.16,0,0,1-.95-2.6c0-4.5,0-9,0-13.5A3.84,3.84,0,0,1,4.17.29a2.1,2.1,0,0,1,1.32-.9A10.94,10.94,0,0,1,7.84-.89H19.57a10,10,0,0,1,2,.25,2.16,2.16,0,0,1,1.77,1.79,6.93,6.93,0,0,1,.18,1.45C23.54,4.78,23.55,7,23.55,9.13Z"/></g><rect class="cls-5" x="1.57" y="-5.62" width="23.75" height="23.75" rx="4.23"/><rect class="cls-5" x="15.72" y="31.47" width="6.71" height="6.71" rx="1.19"/><rect class="cls-5" x="40.49" y="131.8" width="14.63" height="14.63" rx="2.61"/><rect class="cls-5" x="37.46" y="32.28" width="35.6" height="35.6" rx="6.34"/><rect class="cls-3" x="68.46" y="49.63" width="23.49" height="23.49" rx="4.18"/><rect class="cls-3" x="10.42" y="92.53" width="35.55" height="35.55" rx="6.33"/><rect class="cls-5" x="68.15" y="4.01" width="24.11" height="24.11" rx="4.29"/><rect class="cls-5" x="70.84" y="95.59" width="18.74" height="18.74" rx="3.34"/></g></g></g></svg>